<?xml version="1.0" encoding="UTF-8"?> <svg xmlns="http://www.w3.org/2000/svg" xmlns:xlink="http://www.w3.org/1999/xlink" version="1.1" id="Layer_1" x="0px" y="0px" viewBox="0 0 277 71.6" style="enable-background:new 0 0 277 71.6;" xml:space="preserve"> <style type="text/css"> .st0{fill:#F5D900;} .st1{fill:#E05B1A;} .st2{fill:#F5F0EE;} .st3{fill:#0077B1;} .st4{fill:#02A364;} .st5{fill:#ECB6D1;} </style> <g> <path class="st0" d="M242.5,23.3c-0.4,0.9-0.8,1.8-1.2,2.8c-1.4,3.6-2,7.5-1.5,11.4s2.4,7.5,5.5,9.8c3.7,2.8,8.6,3.4,13.2,3.7 c2.5,0.2,5,0.3,7.3-0.4c8-2.2,10.5-11.5,10.3-18.8c-0.2-5.6-3-10.7-7.5-14c-5.6-4.1-12.1-2.6-18.5-1.2 C246.4,17.4,244.1,20,242.5,23.3"></path> <path d="M261.6,51.8c-1,0-2-0.1-3.1-0.1c-4.5-0.3-9.7-0.9-13.6-3.8c-3.1-2.3-5.2-6.1-5.8-10.3c-0.5-3.7,0-7.6,1.5-11.7 c0.4-1.1,0.8-2,1.2-2.9c2-4.1,4.6-6.3,8.2-7l0.6-0.1c6.3-1.3,12.7-2.6,18.4,1.5c4.7,3.4,7.6,8.7,7.8,14.5 c0.2,7.6-2.5,17.2-10.8,19.5C264.6,51.7,263.1,51.8,261.6,51.8 M260,15.9c-2.9,0-5.9,0.6-9,1.3l-0.6,0.1c-3.1,0.6-5.4,2.6-7.2,6.3 c-0.4,0.8-0.8,1.7-1.2,2.7c-1.5,3.9-1.9,7.6-1.4,11c0.6,3.9,2.5,7.3,5.2,9.4c3.6,2.7,8.5,3.3,12.9,3.5c2.5,0.2,4.9,0.3,7.1-0.4 c7.6-2.1,10-11,9.8-18c-0.2-5.4-2.9-10.3-7.2-13.4C265.7,16.5,262.9,15.9,260,15.9 M242.5,23.3L242.5,23.3L242.5,23.3z"></path> <path class="st0" d="M233.4,15.8c-0.4,0.9-0.8,1.8-1.2,2.8c-1.4,3.6-2,7.5-1.5,11.4s2.4,7.5,5.5,9.8c3.7,2.8,8.6,3.4,13.2,3.7 c2.5,0.2,5,0.3,7.3-0.4c8-2.2,10.6-11.5,10.3-18.8c-0.2-5.6-3-10.7-7.5-14c-5.6-4.1-12.1-2.6-18.5-1.2 C237.3,9.9,235,12.5,233.4,15.8"></path> <path d="M252.5,44.3c-1,0-2-0.1-3.1-0.1c-4.5-0.3-9.7-0.9-13.6-3.8c-3.1-2.3-5.2-6.1-5.8-10.3c-0.5-3.7,0-7.6,1.5-11.7 c0.4-1.1,0.8-2,1.2-2.9c2-4.1,4.6-6.3,8.2-7l0.6-0.1c6.3-1.3,12.7-2.6,18.4,1.5c4.7,3.4,7.6,8.8,7.8,14.5c0.2,4.2-0.6,8.3-2.1,11.6 c-1.9,4.1-4.9,6.8-8.7,7.8C255.5,44.2,254,44.3,252.5,44.3 M250.9,8.4c-2.9,0-5.9,0.6-9,1.3l-0.6,0.1c-3.1,0.6-5.4,2.6-7.2,6.3 c-0.4,0.8-0.8,1.7-1.2,2.7c-1.5,3.9-1.9,7.6-1.4,11c0.6,3.9,2.5,7.3,5.2,9.4c3.6,2.7,8.5,3.3,12.9,3.5c2.5,0.2,4.9,0.3,7.1-0.4 c4.8-1.3,10.2-6.8,9.8-18c-0.2-5.3-2.9-10.3-7.2-13.4C256.6,9,253.8,8.4,250.9,8.4 M233.4,15.8L233.4,15.8L233.4,15.8z"></path> <path class="st0" d="M221.1,11c-0.4,0.9-0.8,1.8-1.2,2.8c-1.4,3.6-2,7.5-1.5,11.4c0.6,3.8,2.4,7.5,5.5,9.8 c3.7,2.8,8.6,3.4,13.2,3.7c2.5,0.2,5,0.3,7.3-0.4c8-2.2,10.6-11.5,10.3-18.8c-0.2-5.6-3-10.7-7.5-14c-5.6-4.1-12.1-2.6-18.5-1.2 C224.9,5.1,222.7,7.8,221.1,11"></path> <path d="M240.2,39.5c-1,0-2-0.1-3.1-0.1c-4.5-0.3-9.7-0.9-13.6-3.8c-3.1-2.3-5.2-6.1-5.8-10.3c-0.5-3.7,0-7.6,1.5-11.7 c0.4-1.1,0.8-2,1.2-2.9c2-4.1,4.6-6.3,8.2-7l0.6-0.1c6.3-1.3,12.7-2.6,18.4,1.5c4.7,3.4,7.6,8.8,7.8,14.5c0.2,4.2-0.6,8.3-2.1,11.6 c-1.9,4.1-4.9,6.8-8.7,7.8C243.2,39.4,241.7,39.5,240.2,39.5 M221.7,11.3c-0.4,0.8-0.8,1.7-1.2,2.7c-1.5,3.9-1.9,7.6-1.4,11 c0.6,3.9,2.5,7.3,5.2,9.4c3.6,2.7,8.5,3.3,12.9,3.5c2.5,0.2,4.9,0.2,7.1-0.4c4.8-1.3,10.2-6.8,9.8-18c-0.2-5.3-2.9-10.3-7.2-13.4 c-5.2-3.8-11.1-2.5-17.3-1.3L228.9,5C225.8,5.7,223.5,7.7,221.7,11.3"></path> <path class="st0" d="M206.7,8.8c-0.4,0.9-0.8,1.8-1.2,2.8c-1.4,3.6-2,7.5-1.5,11.4s2.4,7.5,5.5,9.8c3.7,2.8,8.6,3.4,13.2,3.7 c2.5,0.2,5,0.3,7.3-0.4c8-2.2,10.6-11.5,10.3-18.8c-0.2-5.6-3-10.7-7.5-14c-5.6-4.1-12.1-2.6-18.5-1.2 C210.5,2.9,208.3,5.5,206.7,8.8"></path> <path d="M225.8,37.3c-1,0-2-0.1-3.1-0.1c-4.5-0.3-9.7-0.9-13.6-3.8c-3.1-2.3-5.2-6.1-5.8-10.3c-0.5-3.7,0-7.6,1.5-11.7 c0.4-1.1,0.8-2,1.2-2.9c2-4.1,4.6-6.3,8.2-7l0.6-0.1c6.3-1.3,12.7-2.6,18.4,1.5c4.7,3.4,7.6,8.8,7.8,14.5c0.2,4.2-0.6,8.3-2.1,11.6 c-1.9,4.1-4.9,6.8-8.7,7.8C228.8,37.2,227.3,37.3,225.8,37.3 M224.2,1.4c-2.9,0-5.9,0.6-9,1.3l-0.6,0.1c-3.1,0.6-5.4,2.6-7.2,6.3 c-0.4,0.8-0.8,1.7-1.2,2.7c-1.5,3.9-1.9,7.6-1.4,11c0.6,3.9,2.5,7.3,5.2,9.4c3.6,2.7,8.5,3.3,12.9,3.5c2.5,0.2,4.9,0.3,7.1-0.4 c4.8-1.3,10.2-6.8,9.8-18c-0.2-5.3-2.9-10.3-7.2-13.4C229.9,2,227.1,1.4,224.2,1.4 M206.7,8.8L206.7,8.8L206.7,8.8z"></path> <path class="st0" d="M191.3,8.9c-0.4,0.9-0.8,1.8-1.2,2.8c-1.4,3.6-2,7.5-1.5,11.4s2.4,7.5,5.5,9.8c3.7,2.8,8.6,3.4,13.2,3.7 c2.5,0.2,5,0.3,7.3-0.4c8-2.2,10.6-11.5,10.3-18.8c-0.2-5.6-3-10.7-7.5-14c-5.6-4.1-12.1-2.6-18.5-1.2C195.2,3,192.9,5.6,191.3,8.9 "></path> <path d="M210.4,37.4c-1,0-2-0.1-3.1-0.1c-4.5-0.3-9.7-0.9-13.6-3.8c-3.1-2.3-5.2-6.1-5.8-10.3c-0.5-3.7,0-7.6,1.5-11.7 c0.4-1.1,0.8-2,1.2-2.9c2-4.1,4.6-6.3,8.2-7l0.6-0.1c6.3-1.3,12.7-2.6,18.4,1.5c4.7,3.4,7.6,8.8,7.8,14.5c0.2,4.2-0.6,8.3-2.1,11.6 c-1.9,4.1-4.9,6.8-8.7,7.8C213.5,37.3,212,37.4,210.4,37.4 M192,9.2c-0.4,0.8-0.8,1.7-1.2,2.7c-1.5,3.9-1.9,7.6-1.4,11 c0.6,3.9,2.5,7.3,5.2,9.4c3.6,2.7,8.5,3.3,12.9,3.5c2.5,0.2,4.9,0.3,7.1-0.4c4.8-1.3,10.2-6.8,9.8-18c-0.2-5.3-2.9-10.3-7.2-13.4 c-5.2-3.8-11.1-2.5-17.3-1.3l-0.6,0.1C196.1,3.5,193.8,5.5,192,9.2"></path> <path class="st0" d="M176.3,11c-0.4,0.9-0.8,1.8-1.2,2.8c-1.4,3.6-2,7.5-1.5,11.4s2.4,7.5,5.5,9.8c3.7,2.8,8.6,3.4,13.2,3.7 c2.5,0.2,5,0.3,7.3-0.4c8-2.2,10.6-11.5,10.3-18.8c-0.2-5.6-3-10.7-7.5-14C196.8,1.5,190.4,3,184,4.3C180.1,5.1,177.9,7.8,176.3,11 "></path> <path d="M195.3,39.5c-1,0-2-0.1-3.1-0.1c-4.5-0.3-9.7-0.9-13.6-3.8c-3.1-2.3-5.2-6.1-5.8-10.3c-0.5-3.7,0-7.6,1.5-11.7 c0.4-1.1,0.8-2,1.2-2.9c2-4.1,4.6-6.3,8.2-7l0.6-0.1c6.3-1.3,12.7-2.6,18.4,1.5c4.7,3.4,7.6,8.8,7.8,14.5c0.2,4.2-0.6,8.3-2.1,11.6 c-1.9,4.1-4.9,6.8-8.7,7.8C198.4,39.4,196.9,39.5,195.3,39.5 M176.9,11.3L176.9,11.3c-0.4,0.8-0.8,1.7-1.2,2.7 c-1.5,3.9-1.9,7.6-1.4,11c0.6,3.9,2.5,7.3,5.2,9.4c3.6,2.7,8.5,3.3,12.9,3.5c2.5,0.2,4.9,0.3,7.1-0.4c4.8-1.3,10.2-6.8,9.8-18 c-0.2-5.3-2.9-10.3-7.2-13.4c-5.2-3.8-11.1-2.5-17.3-1.3L184.1,5C181,5.7,178.7,7.7,176.9,11.3"></path> <path class="st0" d="M162.6,15c-0.4,0.9-0.8,1.8-1.2,2.8c-1.4,3.6-2,7.5-1.5,11.4s2.4,7.5,5.5,9.8c3.7,2.8,8.6,3.4,13.2,3.7 c2.5,0.2,5,0.3,7.3-0.4c8-2.2,10.5-11.5,10.3-18.8c-0.2-5.6-3-10.7-7.5-14c-5.6-4.1-12.1-2.6-18.5-1.2 C166.4,9.1,164.2,11.8,162.6,15"></path> <path d="M181.7,43.5c-1,0-2-0.1-3.1-0.1c-4.5-0.3-9.7-0.9-13.6-3.8c-3.1-2.3-5.2-6.1-5.8-10.3c-0.5-3.7,0-7.6,1.5-11.7 c0.4-1.1,0.8-2,1.2-2.9c2-4.1,4.6-6.3,8.2-7l0.6-0.1c6.3-1.3,12.7-2.6,18.4,1.5c4.7,3.4,7.6,8.7,7.8,14.5 c0.2,7.6-2.5,17.2-10.8,19.5C184.7,43.4,183.2,43.5,181.7,43.5 M163.2,15.3c-0.4,0.8-0.8,1.7-1.2,2.7c-1.5,3.9-1.9,7.6-1.4,11 c0.6,3.9,2.5,7.3,5.2,9.4c3.6,2.7,8.5,3.3,12.9,3.5c2.5,0.2,4.9,0.2,7.1-0.4c7.6-2.1,10-11,9.8-18c-0.2-5.4-2.8-10.3-7.2-13.4 c-5.2-3.8-11.1-2.5-17.3-1.3L170.4,9C167.3,9.7,165,11.7,163.2,15.3"></path> <path class="st0" d="M154.6,18.9c-0.4,0.9-0.8,1.8-1.2,2.8c-1.4,3.6-2,7.5-1.5,11.4s2.4,7.5,5.5,9.8c3.7,2.8,8.6,3.4,13.2,3.7 c2.5,0.2,5,0.3,7.3-0.4c8-2.2,10.6-11.5,10.3-18.8c-0.2-5.6-3-10.7-7.5-14c-5.6-4.1-12.1-2.6-18.5-1.2 C158.4,13.1,156.2,15.7,154.6,18.9"></path> <path d="M173.7,47.5c-1,0-2-0.1-3.1-0.1c-4.5-0.3-9.7-0.9-13.6-3.8c-3.1-2.3-5.2-6.1-5.8-10.3c-0.5-3.7,0-7.6,1.5-11.7 c0.4-1.1,0.8-2,1.2-2.9c2-4.1,4.6-6.3,8.2-7l0.6-0.1c6.3-1.3,12.7-2.6,18.4,1.5c4.7,3.4,7.6,8.8,7.8,14.5c0.2,4.2-0.6,8.3-2.1,11.6 c-1.9,4.1-4.9,6.8-8.7,7.8C176.7,47.3,175.2,47.5,173.7,47.5 M155.2,19.2L155.2,19.2c-0.4,0.8-0.8,1.7-1.2,2.7 c-1.5,3.9-1.9,7.6-1.4,11c0.6,3.9,2.5,7.3,5.2,9.4c3.6,2.7,8.5,3.3,12.9,3.5c2.5,0.2,4.9,0.3,7.1-0.4c4.8-1.3,10.2-6.8,9.8-18 c-0.2-5.3-2.9-10.3-7.2-13.4c-5.2-3.8-11.1-2.5-17.3-1.3l-0.6,0.1C159.3,13.6,157,15.6,155.2,19.2"></path> <path class="st0" d="M145.4,24.5c-0.4,0.9-0.8,1.8-1.2,2.8c-1.4,3.6-2,7.5-1.5,11.4s2.4,7.5,5.5,9.8c3.7,2.8,8.6,3.4,13.2,3.7 c2.5,0.2,5,0.3,7.3-0.4c8-2.2,10.6-11.5,10.3-18.8c-0.2-5.6-3-10.7-7.5-14c-5.6-4.1-12.1-2.6-18.5-1.2 C149.2,18.7,147,21.3,145.4,24.5"></path> <path d="M164.4,53.1c-1,0-2-0.1-3.1-0.1c-4.5-0.3-9.7-0.9-13.6-3.8c-3.1-2.3-5.2-6.1-5.8-10.3c-0.5-3.7,0-7.6,1.5-11.7 c0.4-1.1,0.8-2,1.2-2.9c2-4.1,4.6-6.3,8.2-7l0.6-0.1c6.3-1.3,12.7-2.6,18.4,1.5c4.7,3.4,7.6,8.8,7.8,14.5c0.2,4.2-0.6,8.3-2.1,11.6 c-1.9,4.1-4.9,6.8-8.7,7.8C167.5,52.9,166,53.1,164.4,53.1 M146,24.9L146,24.9c-0.4,0.8-0.8,1.7-1.2,2.7c-1.5,3.9-1.9,7.6-1.4,11 c0.6,3.9,2.5,7.3,5.2,9.4c3.6,2.7,8.5,3.3,12.9,3.5c2.5,0.2,4.9,0.3,7.1-0.4c4.8-1.3,10.2-6.8,9.8-18c-0.2-5.3-2.9-10.3-7.2-13.4 c-5.2-3.8-11.1-2.5-17.3-1.3l-0.6,0.1C150.1,19.2,147.8,21.2,146,24.9"></path> <path class="st0" d="M135.5,30.8c-0.4,0.9-0.8,1.8-1.2,2.8c-1.4,3.6-2,7.5-1.5,11.4s2.4,7.5,5.5,9.8c3.7,2.8,8.6,3.4,13.2,3.7 c2.5,0.2,5,0.3,7.3-0.4c8-2.2,10.6-11.5,10.3-18.8c-0.2-5.6-3-10.7-7.5-14c-5.6-4.1-12.1-2.6-18.5-1.2 C139.4,24.9,137.1,27.5,135.5,30.8"></path> <path d="M154.6,59.3c-1,0-2-0.1-3.1-0.1c-4.5-0.3-9.7-0.9-13.6-3.8c-3.1-2.3-5.2-6.1-5.8-10.3c-0.5-3.7,0-7.6,1.5-11.7 c0.4-1.1,0.8-2,1.2-2.9c2-4.1,4.6-6.3,8.2-7l0.6-0.1c6.3-1.3,12.7-2.6,18.4,1.5c4.7,3.4,7.6,8.8,7.8,14.5c0.2,4.2-0.6,8.3-2.1,11.6 c-1.9,4.1-4.9,6.8-8.7,7.8C157.6,59.2,156.1,59.3,154.6,59.3 M136.1,31.1L136.1,31.1c-0.4,0.8-0.8,1.7-1.2,2.7 c-1.5,3.9-1.9,7.6-1.4,11c0.6,3.9,2.5,7.3,5.2,9.4c3.6,2.7,8.5,3.3,12.9,3.5c2.5,0.2,4.9,0.3,7.1-0.4c4.8-1.3,10.2-6.8,9.8-18 c-0.2-5.3-2.9-10.3-7.2-13.4c-5.2-3.8-11.1-2.5-17.3-1.3l-0.6,0.1C140.2,25.5,137.9,27.4,136.1,31.1"></path> <path class="st0" d="M125.6,36.6c-0.4,0.9-0.8,1.8-1.2,2.8c-1.4,3.6-2,7.5-1.5,11.4c0.6,3.8,2.4,7.5,5.5,9.8 c3.7,2.8,8.6,3.4,13.2,3.7c2.5,0.2,5,0.3,7.3-0.4c8-2.2,10.6-11.5,10.3-18.8c-0.2-5.6-3-10.7-7.5-14c-5.6-4.1-12.1-2.6-18.5-1.2 C129.4,30.8,127.1,33.4,125.6,36.6"></path> <path d="M144.6,65.2c-1,0-2-0.1-3.1-0.1c-4.5-0.3-9.7-0.9-13.6-3.8c-3.1-2.3-5.2-6.1-5.8-10.3c-0.5-3.7,0-7.6,1.5-11.7 c0.4-1.1,0.8-2,1.2-2.9c2-4.1,4.6-6.3,8.2-7l0.6-0.1c6.3-1.3,12.7-2.6,18.4,1.5c4.7,3.4,7.6,8.8,7.8,14.5c0.2,4.2-0.6,8.3-2.1,11.6 c-1.9,4.1-4.9,6.8-8.7,7.8C147.7,65,146.2,65.2,144.6,65.2 M143.1,29.3c-2.9,0-5.9,0.6-9,1.3l-0.6,0.1c-3.1,0.6-5.4,2.6-7.2,6.3 c-0.4,0.8-0.8,1.7-1.2,2.7c-1.5,3.9-1.9,7.6-1.4,11c0.6,3.9,2.5,7.3,5.2,9.4c3.6,2.7,8.5,3.3,12.9,3.5c2.5,0.2,4.9,0.3,7.1-0.4 c4.8-1.3,10.2-6.8,9.8-18c-0.2-5.3-2.9-10.3-7.2-13.4C148.8,29.9,146,29.3,143.1,29.3 M125.6,36.6L125.6,36.6L125.6,36.6z"></path> <path class="st0" d="M116.1,41.1c-0.4,0.9-0.8,1.8-1.2,2.8c-1.4,3.6-2,7.5-1.5,11.4c0.6,3.8,2.4,7.5,5.5,9.8 c3.7,2.8,8.6,3.4,13.2,3.7c2.5,0.2,5,0.3,7.3-0.4c8-2.2,10.6-11.5,10.3-18.8c-0.2-5.6-3-10.7-7.5-14c-5.6-4.1-12.1-2.6-18.5-1.2 C119.9,35.2,117.7,37.8,116.1,41.1"></path> <path d="M135.2,69.6c-1,0-2-0.1-3.1-0.1c-4.5-0.3-9.7-0.9-13.6-3.8c-3.1-2.3-5.2-6.1-5.8-10.3c-0.5-3.7,0-7.6,1.5-11.7 c0.4-1.1,0.8-2,1.2-2.9c2-4.1,4.6-6.3,8.2-7l0.6-0.1c6.3-1.3,12.7-2.6,18.4,1.5c4.7,3.4,7.6,8.8,7.8,14.5c0.2,4.2-0.6,8.3-2.1,11.6 c-1.9,4.1-4.9,6.8-8.7,7.8C138.2,69.5,136.7,69.6,135.2,69.6 M116.7,41.4L116.7,41.4c-0.4,0.8-0.8,1.7-1.2,2.7 c-1.5,3.9-1.9,7.6-1.4,11c0.6,3.9,2.5,7.3,5.2,9.4c3.6,2.7,8.5,3.3,12.9,3.5c2.5,0.2,4.9,0.3,7.1-0.4c4.8-1.3,10.2-6.8,9.8-18 c-0.2-5.3-2.9-10.3-7.2-13.4c-5.2-3.8-11.1-2.5-17.3-1.3l-0.6,0.1C120.8,35.7,118.5,37.7,116.7,41.4"></path> <path class="st0" d="M107.7,43.1c-0.4,0.9-0.8,1.8-1.2,2.8c-1.4,3.6-2,7.5-1.5,11.4c0.6,3.8,2.4,7.5,5.5,9.8 c3.7,2.8,8.6,3.4,13.2,3.7c2.5,0.2,5,0.3,7.3-0.4c8-2.2,10.5-11.5,10.3-18.8c-0.2-5.6-3-10.7-7.5-14c-5.6-4.1-12.1-2.6-18.5-1.2 C111.5,37.2,109.3,39.8,107.7,43.1"></path> <path d="M126.8,71.6c-1,0-2-0.1-3.1-0.1c-4.5-0.3-9.7-0.9-13.6-3.8c-3.1-2.3-5.2-6.1-5.8-10.3c-0.5-3.7,0-7.6,1.5-11.7 c0.4-1.1,0.8-2,1.2-2.9c2-4.1,4.6-6.3,8.2-7l0.6-0.1c6.3-1.3,12.7-2.6,18.4,1.5c4.7,3.4,7.6,8.7,7.8,14.5 c0.2,7.6-2.5,17.2-10.8,19.5C129.8,71.5,128.3,71.6,126.8,71.6 M108.3,43.4L108.3,43.4c-0.4,0.8-0.8,1.7-1.2,2.7 c-1.5,3.9-1.9,7.6-1.4,11c0.6,3.9,2.5,7.3,5.2,9.4c3.6,2.7,8.5,3.3,12.9,3.5c2.5,0.2,4.9,0.3,7.1-0.4c7.6-2.1,10-11,9.8-18 c-0.2-5.4-2.9-10.3-7.2-13.4c-5.2-3.8-11.1-2.5-17.3-1.3l-0.6,0.1C112.4,37.7,110.1,39.7,108.3,43.4"></path> <path class="st0" d="M99.2,41.3c-0.4,0.9-0.8,1.8-1.2,2.8c-1.4,3.6-2,7.5-1.5,11.4c0.6,3.8,2.4,7.5,5.5,9.8 c3.7,2.8,8.6,3.4,13.2,3.7c2.5,0.2,5,0.3,7.3-0.4c8-2.2,10.6-11.5,10.3-18.8c-0.2-5.6-3-10.7-7.5-14c-5.6-4.1-12.1-2.6-18.5-1.2 C103.1,35.5,100.8,38.1,99.2,41.3"></path> <path d="M118.3,69.9c-1,0-2-0.1-3.1-0.1c-4.5-0.3-9.7-0.9-13.6-3.8c-3.1-2.3-5.2-6.1-5.8-10.3c-0.5-3.7,0-7.6,1.5-11.7 c0.4-1.1,0.8-2,1.2-2.9c2-4.1,4.6-6.3,8.2-7l0.6-0.1c6.3-1.3,12.7-2.6,18.4,1.5c4.7,3.4,7.6,8.8,7.8,14.5c0.2,4.2-0.6,8.3-2.1,11.6 c-1.9,4.1-4.9,6.8-8.7,7.8C121.3,69.7,119.8,69.9,118.3,69.9 M99.9,41.6c-0.4,0.8-0.8,1.7-1.2,2.7c-1.5,3.9-1.9,7.6-1.4,11 c0.6,3.9,2.5,7.3,5.2,9.4c3.6,2.7,8.5,3.3,12.9,3.5c2.5,0.2,4.9,0.3,7.1-0.4c4.8-1.3,10.2-6.8,9.8-18c-0.2-5.3-2.9-10.3-7.2-13.4 c-5.2-3.8-11.1-2.5-17.3-1.3l-0.6,0.1C103.9,36,101.6,38,99.9,41.6"></path> <path class="st0" d="M90.1,36.3c-0.4,0.9-0.8,1.8-1.2,2.8c-1.4,3.6-2,7.5-1.5,11.4c0.6,3.8,2.4,7.5,5.5,9.8 c3.7,2.8,8.6,3.4,13.2,3.7c2.5,0.2,5,0.3,7.3-0.4c8-2.2,10.6-11.5,10.3-18.8c-0.2-5.6-3-10.7-7.5-14c-5.6-4.1-12.1-2.6-18.5-1.2 C94,30.4,91.7,33.1,90.1,36.3"></path> <path d="M109.2,64.8c-1,0-2-0.1-3.1-0.1c-4.5-0.3-9.7-0.9-13.6-3.8c-3.1-2.3-5.2-6.1-5.8-10.3c-0.5-3.7,0-7.6,1.5-11.7 c0.4-1.1,0.8-2,1.2-2.9c2-4.1,4.6-6.3,8.2-7l0.6-0.1c6.3-1.3,12.7-2.6,18.4,1.5c4.7,3.4,7.6,8.8,7.8,14.5c0.2,4.2-0.6,8.3-2.1,11.6 c-1.9,4.1-4.9,6.8-8.7,7.8C112.2,64.7,110.7,64.8,109.2,64.8 M90.8,36.6L90.8,36.6c-0.4,0.8-0.8,1.7-1.2,2.7 c-1.5,3.9-1.9,7.6-1.4,11c0.6,3.9,2.5,7.3,5.2,9.4c3.6,2.7,8.5,3.3,12.9,3.5c2.5,0.2,4.9,0.2,7.1-0.4c4.8-1.3,10.2-6.8,9.8-18 c-0.2-5.3-2.9-10.3-7.2-13.4c-5.2-3.8-11.1-2.5-17.3-1.3L98,30.3C94.8,31,92.6,33,90.8,36.6"></path> <path class="st0" d="M80.7,29.6c-0.4,0.9-0.8,1.8-1.2,2.8c-1.4,3.6-2,7.5-1.5,11.4c0.6,3.8,2.4,7.5,5.5,9.8 c3.7,2.8,8.6,3.4,13.2,3.7c2.5,0.2,5,0.3,7.3-0.4c8-2.2,10.6-11.5,10.3-18.8c-0.2-5.6-3-10.7-7.5-14c-5.6-4.1-12.1-2.6-18.5-1.2 C84.6,23.7,82.3,26.4,80.7,29.6"></path> <path d="M99.8,58.1c-1,0-2-0.1-3.1-0.1c-4.5-0.3-9.7-0.9-13.6-3.8c-3.1-2.3-5.2-6.1-5.8-10.3c-0.5-3.7,0-7.6,1.5-11.7 c0.4-1.1,0.8-2,1.2-2.9c2-4.1,4.6-6.3,8.2-7l0.6-0.1c6.3-1.3,12.7-2.6,18.4,1.5c4.7,3.4,7.6,8.8,7.8,14.5c0.2,4.2-0.6,8.3-2.1,11.6 c-1.9,4.1-4.9,6.8-8.7,7.8C102.8,58,101.3,58.1,99.8,58.1 M98.2,22.2c-2.9,0-5.9,0.6-9,1.3l-0.6,0.1c-3.1,0.6-5.4,2.6-7.2,6.3 c-0.4,0.8-0.8,1.7-1.2,2.7c-1.5,3.9-1.9,7.6-1.4,11c0.6,3.9,2.5,7.3,5.2,9.4c3.6,2.7,8.5,3.3,12.9,3.5c2.5,0.2,4.9,0.3,7.1-0.4 c4.8-1.3,10.2-6.8,9.8-18c-0.2-5.3-2.9-10.3-7.2-13.4C103.9,22.9,101.1,22.2,98.2,22.2 M80.7,29.6L80.7,29.6L80.7,29.6z"></path> <path class="st0" d="M71.3,22.8c-0.4,0.9-0.8,1.8-1.2,2.8c-1.4,3.6-2,7.5-1.5,11.4c0.6,3.8,2.4,7.5,5.5,9.8 c3.7,2.8,8.6,3.4,13.2,3.7c2.5,0.2,5,0.3,7.3-0.4c8-2.2,10.6-11.5,10.3-18.8c-0.2-5.6-3-10.7-7.5-14c-5.6-4.1-12.1-2.6-18.5-1.2 C75.2,16.9,72.9,19.5,71.3,22.8"></path> <path d="M90.4,51.3c-1,0-2-0.1-3.1-0.1c-4.5-0.3-9.7-0.9-13.6-3.8c-3.1-2.3-5.2-6.1-5.8-10.3c-0.5-3.7,0-7.6,1.5-11.7 c0.4-1.1,0.8-2,1.2-2.9c2-4.1,4.6-6.3,8.2-7l0.6-0.1c6.3-1.3,12.7-2.6,18.4,1.5c4.7,3.4,7.6,8.8,7.8,14.5c0.2,4.2-0.6,8.3-2.1,11.6 c-1.9,4.1-4.9,6.8-8.7,7.8C93.4,51.1,91.9,51.3,90.4,51.3 M71.9,23.1c-0.4,0.8-0.8,1.7-1.2,2.7c-1.5,3.9-1.9,7.6-1.4,11 c0.6,3.9,2.5,7.3,5.2,9.4c3.6,2.7,8.5,3.3,12.9,3.5c2.5,0.2,4.9,0.3,7.1-0.4c4.8-1.3,10.2-6.8,9.8-18c-0.2-5.3-2.9-10.3-7.2-13.4 c-5.2-3.8-11.1-2.5-17.3-1.3l-0.6,0.1C76,17.4,73.7,19.4,71.9,23.1"></path> <path class="st0" d="M62.2,17.4c-0.4,0.9-0.8,1.8-1.2,2.8c-1.4,3.6-2,7.5-1.5,11.4c0.6,3.8,2.4,7.5,5.5,9.8 c3.7,2.8,8.6,3.4,13.2,3.7c2.5,0.2,5,0.3,7.3-0.4c8-2.2,10.6-11.5,10.3-18.8c-0.2-5.6-3-10.7-7.5-14c-5.6-4.1-12.1-2.6-18.5-1.2 C66.1,11.5,63.8,14.1,62.2,17.4"></path> <path d="M81.3,45.9c-1,0-2-0.1-3.1-0.1c-4.5-0.3-9.7-0.9-13.6-3.8c-3.1-2.3-5.2-6.1-5.8-10.3c-0.5-3.7,0-7.6,1.5-11.7 c0.4-1.1,0.8-2,1.2-2.9c2-4.1,4.6-6.3,8.2-7l0.6-0.1c6.3-1.3,12.7-2.6,18.4,1.5c4.7,3.4,7.6,8.8,7.8,14.5c0.2,4.2-0.6,8.3-2.1,11.6 c-1.9,4.1-4.9,6.8-8.7,7.8C84.3,45.8,82.8,45.9,81.3,45.9 M79.7,10c-2.9,0-5.9,0.6-9,1.3l-0.6,0.1c-3.1,0.6-5.4,2.6-7.2,6.3 c-0.4,0.8-0.8,1.7-1.2,2.7c-1.5,3.9-1.9,7.6-1.4,11c0.6,3.9,2.5,7.3,5.2,9.4c3.6,2.7,8.5,3.3,12.9,3.5c2.5,0.2,4.9,0.3,7.1-0.4 c4.8-1.3,10.2-6.8,9.8-18C95,20.7,92.3,15.6,88,12.5C85.4,10.6,82.6,10,79.7,10 M62.2,17.4L62.2,17.4L62.2,17.4z"></path> <path class="st0" d="M53.7,15c-0.4,0.9-0.8,1.8-1.2,2.8c-1.4,3.6-2,7.5-1.5,11.4c0.6,3.8,2.4,7.5,5.5,9.8c3.7,2.8,8.6,3.4,13.2,3.7 c2.5,0.2,5,0.3,7.3-0.4c8-2.2,10.5-11.5,10.3-18.8c-0.2-5.6-3-10.7-7.5-14C74.3,5.5,67.9,7,61.4,8.3C57.6,9.1,55.3,11.8,53.7,15"></path> <path d="M72.8,43.5c-1,0-2-0.1-3.1-0.1c-4.5-0.3-9.7-0.9-13.6-3.8c-3.1-2.3-5.2-6.1-5.8-10.3c-0.5-3.7,0-7.6,1.5-11.7 c0.4-1.1,0.8-2,1.2-2.9c2-4.1,4.6-6.3,8.2-7l0.6-0.1C68.2,6.2,74.7,4.9,80.4,9c4.7,3.4,7.6,8.7,7.8,14.5 c0.2,7.6-2.5,17.2-10.8,19.5C75.9,43.4,74.3,43.5,72.8,43.5 M54.4,15.3L54.4,15.3C54,16.1,53.6,17,53.2,18c-1.5,3.9-1.9,7.6-1.4,11 c0.6,3.9,2.5,7.3,5.2,9.4c3.6,2.7,8.5,3.3,12.9,3.5c2.5,0.2,4.9,0.2,7.1-0.4c7.6-2.1,10-11,9.8-18c-0.2-5.4-2.9-10.3-7.2-13.4 c-5.2-3.8-11.1-2.5-17.3-1.3L61.6,9C58.5,9.7,56.2,11.7,54.4,15.3"></path> <path class="st0" d="M46.8,15.1c-0.4,0.9-0.8,1.8-1.2,2.8c-1.4,3.6-2,7.5-1.5,11.4c0.6,3.8,2.4,7.5,5.5,9.8 c3.7,2.8,8.6,3.4,13.2,3.7c2.5,0.2,5,0.3,7.3-0.4c8-2.2,10.6-11.5,10.3-18.8c-0.2-5.6-3-10.7-7.5-14C67.4,5.6,61,7.1,54.5,8.4 C50.7,9.2,48.4,11.9,46.8,15.1"></path> <path d="M65.9,43.6c-1,0-2-0.1-3.1-0.1c-4.5-0.3-9.7-0.9-13.6-3.8c-3.1-2.3-5.2-6.1-5.8-10.3c-0.5-3.7,0-7.6,1.5-11.7 c0.4-1.1,0.8-2,1.2-2.9c2-4.1,4.6-6.3,8.2-7L55,7.6C61.3,6.3,67.7,5,73.5,9.1c4.7,3.4,7.6,8.8,7.8,14.5c0.2,4.2-0.6,8.3-2.1,11.6 c-1.9,4.1-4.9,6.8-8.7,7.8C68.9,43.5,67.4,43.6,65.9,43.6 M47.5,15.4c-0.4,0.8-0.8,1.7-1.2,2.7c-1.5,3.9-1.9,7.6-1.4,11 c0.6,3.9,2.5,7.3,5.2,9.4c3.6,2.7,8.5,3.3,12.9,3.5c2.5,0.2,4.9,0.3,7.1-0.4c4.8-1.3,10.2-6.8,9.8-18c-0.2-5.3-2.9-10.3-7.2-13.4 C67.4,6.5,61.5,7.7,55.3,9l-0.6,0.1C51.5,9.8,49.2,11.8,47.5,15.4"></path> <path class="st0" d="M38.1,16.1c-0.4,0.9-0.8,1.8-1.2,2.8c-1.4,3.6-2,7.5-1.5,11.4c0.6,3.8,2.4,7.5,5.5,9.8 c3.7,2.8,8.6,3.4,13.2,3.7c2.5,0.2,5,0.3,7.3-0.4c8-2.2,10.6-11.5,10.3-18.8c-0.2-5.6-3-10.7-7.5-14c-5.6-4.1-12.1-2.6-18.5-1.2 C41.9,10.2,39.7,12.8,38.1,16.1"></path> <path d="M57.2,44.6c-1,0-2-0.1-3.1-0.1c-4.5-0.3-9.7-0.9-13.6-3.8c-3.1-2.3-5.2-6.1-5.8-10.3c-0.5-3.7,0-7.6,1.5-11.7 c0.4-1.1,0.8-2,1.2-2.9c2-4.1,4.6-6.3,8.2-7l0.6-0.1c6.3-1.3,12.7-2.6,18.4,1.5c4.7,3.4,7.6,8.8,7.8,14.5c0.2,4.2-0.6,8.3-2.1,11.6 c-1.9,4.1-4.9,6.8-8.7,7.8C60.2,44.4,58.7,44.6,57.2,44.6 M38.7,16.4c-0.4,0.8-0.8,1.7-1.2,2.7c-1.5,3.9-1.9,7.6-1.4,11 c0.6,3.9,2.5,7.3,5.2,9.4c3.6,2.7,8.5,3.3,12.9,3.5c2.5,0.2,4.9,0.3,7.1-0.4c4.8-1.3,10.2-6.8,9.8-18c-0.2-5.3-2.9-10.3-7.2-13.4 c-5.2-3.8-11.1-2.5-17.3-1.3l-0.6,0.1C42.8,10.7,40.5,12.7,38.7,16.4"></path> <path class="st0" d="M28.4,18.1c-0.4,0.9-0.8,1.8-1.2,2.8c-1.4,3.6-2,7.5-1.5,11.4c0.6,3.8,2.4,7.5,5.5,9.8 c3.7,2.8,8.6,3.4,13.2,3.7c2.5,0.2,5,0.3,7.3-0.4c8-2.2,10.6-11.5,10.3-18.8c-0.2-5.6-3-10.7-7.5-14c-5.6-4.1-12.1-2.6-18.5-1.2 C32.3,12.2,30,14.8,28.4,18.1"></path> <path d="M47.5,46.6c-1,0-2-0.1-3.1-0.1c-4.5-0.3-9.7-0.9-13.6-3.8c-3.1-2.3-5.2-6.1-5.8-10.3c-0.5-3.7,0-7.6,1.5-11.7 c0.4-1.1,0.8-2,1.2-2.9c2-4.1,4.6-6.3,8.2-7l0.6-0.1c6.3-1.3,12.7-2.6,18.4,1.5c4.7,3.4,7.6,8.8,7.8,14.5c0.2,4.2-0.6,8.3-2.1,11.6 c-1.9,4.1-4.9,6.8-8.7,7.8C50.6,46.5,49,46.6,47.5,46.6 M29.1,18.4c-0.4,0.8-0.8,1.7-1.2,2.7c-1.5,3.9-1.9,7.6-1.4,11 c0.6,3.9,2.5,7.3,5.2,9.4c3.6,2.7,8.5,3.3,12.9,3.5c2.5,0.2,4.9,0.3,7.1-0.4c4.8-1.3,10.2-6.8,9.8-18c-0.2-5.3-2.9-10.3-7.2-13.4 C49,9.5,43.2,10.7,36.9,12l-0.6,0.1C33.2,12.7,30.9,14.7,29.1,18.4"></path> <path class="st0" d="M18.9,21.4c-0.4,0.9-0.8,1.8-1.2,2.8c-1.4,3.6-2,7.5-1.5,11.4c0.6,3.8,2.4,7.5,5.5,9.8 c3.7,2.8,8.6,3.4,13.2,3.7c2.5,0.2,5,0.3,7.3-0.4c8-2.2,10.6-11.5,10.3-18.8c-0.2-5.6-3-10.7-7.5-14c-5.6-4.1-12.1-2.6-18.5-1.2 C22.7,15.5,20.4,18.2,18.9,21.4"></path> <path d="M37.9,49.9c-1,0-2-0.1-3.1-0.1c-4.5-0.3-9.7-0.9-13.6-3.8c-3.1-2.3-5.2-6.1-5.8-10.3c-0.5-3.7,0-7.6,1.5-11.7 c0.4-1.1,0.8-2,1.2-2.9c2-4.1,4.6-6.3,8.2-7l0.6-0.1c6.3-1.3,12.7-2.6,18.4,1.5c4.7,3.4,7.6,8.8,7.8,14.5c0.2,4.2-0.6,8.3-2.1,11.6 c-1.9,4.1-4.9,6.8-8.7,7.8C41,49.8,39.5,49.9,37.9,49.9 M19.5,21.7c-0.4,0.8-0.8,1.7-1.2,2.7c-1.5,3.9-1.9,7.6-1.4,11 c0.6,3.9,2.5,7.3,5.2,9.4c3.6,2.7,8.5,3.3,12.9,3.5c2.5,0.2,4.9,0.3,7.1-0.4c4.8-1.3,10.2-6.8,9.8-18c-0.2-5.3-2.9-10.3-7.2-13.4 c-5.2-3.8-11.1-2.5-17.3-1.3l-0.6,0.1C23.6,16.1,21.3,18.1,19.5,21.7"></path> <path class="st0" d="M10.3,26.3c-0.4,0.9-0.8,1.8-1.2,2.8c-1.4,3.6-2,7.5-1.5,11.4c0.6,3.8,2.4,7.5,5.5,9.8 c3.7,2.8,8.6,3.4,13.2,3.7c2.5,0.2,5,0.3,7.3-0.4c8-2.2,10.6-11.5,10.3-18.8c-0.2-5.6-3-10.7-7.5-14c-5.6-4.1-12.1-2.6-18.5-1.2 C14.1,20.4,11.8,23,10.3,26.3"></path> <path d="M29.3,54.8c-1,0-2-0.1-3.1-0.1c-4.5-0.3-9.7-0.9-13.6-3.8c-3.1-2.3-5.2-6.1-5.8-10.3c-0.5-3.7,0-7.6,1.5-11.7 c0.4-1.1,0.8-2,1.2-2.9c2-4.1,4.6-6.3,8.2-7l0.6-0.1c6.3-1.3,12.7-2.6,18.4,1.5c4.7,3.4,7.6,8.8,7.8,14.5c0.2,4.2-0.6,8.3-2.1,11.6 c-1.9,4.1-4.9,6.8-8.7,7.8C32.4,54.7,30.9,54.8,29.3,54.8 M10.9,26.6c-0.4,0.8-0.8,1.7-1.2,2.7c-1.5,3.9-1.9,7.6-1.4,11 c0.6,3.9,2.5,7.3,5.2,9.4c3.6,2.7,8.5,3.3,12.9,3.5c2.5,0.2,4.9,0.3,7.1-0.4c4.8-1.3,10.2-6.8,9.8-18c-0.2-5.3-2.9-10.3-7.2-13.4 c-5.2-3.8-11.1-2.5-17.3-1.3l-0.6,0.1C15,20.9,12.7,22.9,10.9,26.6"></path> <path class="st0" d="M3.6,32.9c-0.4,0.9-0.8,1.8-1.2,2.8c-1.4,3.6-2,7.5-1.5,11.4c0.6,3.8,2.4,7.5,5.5,9.8 c3.7,2.8,8.6,3.4,13.2,3.7c2.5,0.2,5,0.3,7.3-0.4c8-2.2,10.5-11.5,10.3-18.8c-0.2-5.6-3-10.7-7.5-14c-5.6-4.1-12.1-2.6-18.5-1.2 C7.4,27.1,5.2,29.7,3.6,32.9"></path> <path d="M22.7,61.5c-1,0-2-0.1-3.1-0.1C15.1,61,9.9,60.5,6,57.5c-3.1-2.3-5.2-6.1-5.8-10.3c-0.5-3.7,0-7.6,1.5-11.7 c0.4-1.1,0.8-2,1.2-2.9c2-4.1,4.6-6.3,8.2-7l0.6-0.1c6.3-1.3,12.7-2.6,18.4,1.5c4.7,3.4,7.6,8.7,7.8,14.5 c0.2,7.6-2.5,17.2-10.8,19.5C25.7,61.3,24.2,61.5,22.7,61.5 M21.1,25.6c-2.9,0-5.9,0.6-9,1.3L11.4,27c-3.1,0.6-5.4,2.6-7.2,6.3 c-0.4,0.8-0.8,1.7-1.2,2.7c-1.5,3.9-1.9,7.6-1.4,11c0.6,3.9,2.5,7.3,5.2,9.4c3.6,2.7,8.5,3.3,12.9,3.5c2.5,0.2,4.9,0.3,7.1-0.4 c7.6-2.1,10-11,9.8-18c-0.2-5.4-2.9-10.3-7.2-13.4C26.8,26.2,24,25.6,21.1,25.6 M3.6,32.9L3.6,32.9L3.6,32.9z"></path> <path d="M9.2,46.8c-0.4,3.1,1.1,6.4,3.8,7.9c0.9,0.5,2,0.8,3,1.1c3.3,0.9,7.2,1.7,10-0.3c2.5-1.8,3.2-5.1,3.4-8.2 C30.6,33.6,10.6,34.4,9.2,46.8"></path> <path d="M21.6,57.5c-1.9,0-3.9-0.4-5.7-1c-1-0.3-2.1-0.6-3.2-1.2c-2.8-1.6-4.5-5.1-4.1-8.6c0.8-7.1,7.3-10.7,13-10.1 c4.3,0.4,9.2,3.5,8.6,10.7c-0.2,2.7-0.9,6.6-3.7,8.7C25,57.1,23.3,57.5,21.6,57.5 M9.9,46.9L9.9,46.9c-0.3,2.9,1.1,5.9,3.4,7.2 c0.8,0.5,1.8,0.7,2.9,1.1c3.4,0.9,6.9,1.6,9.4-0.2c2.4-1.7,2.9-5.2,3.1-7.7c0.5-6.2-3.4-8.8-7.3-9.2C16.3,37.5,10.6,40.7,9.9,46.9"></path> <path class="st1" d="M23.3,51.4l0-0.8c-0.8-0.3-1.6-0.6-2.5-0.9c-0.8-0.3-1.7-0.6-2.6-0.7c-2.6,0-4.6,2.5-5.3,5.1 c0,0.2-0.1,0.3-0.1,0.5c0.1,0,0.1,0.1,0.1,0.1c0.9,0.5,2,0.8,3,1.1c1.8,0.5,3.8,1,5.7,0.9c0.5-0.8,0.9-1.7,1.2-2.6 C23.3,53.3,23.6,52.3,23.3,51.4"></path> <path d="M21.5,57.5c-2,0-4-0.5-5.7-1c-1-0.3-2.1-0.6-3.2-1.2c-0.1,0-0.1-0.1-0.2-0.1c-0.3-0.2-0.4-0.5-0.3-0.8 c0-0.2,0.1-0.4,0.1-0.5c0.7-2.7,2.9-5.6,5.9-5.6c0,0,0.1,0,0.1,0c1,0,2,0.4,2.8,0.7l2.5,0.9c0.3,0.1,0.5,0.4,0.5,0.7l0,0.7 c0.3,1.1-0.1,2.2-0.4,3.2c-0.4,1.1-0.8,1.9-1.2,2.7c-0.1,0.2-0.4,0.4-0.6,0.4C21.7,57.5,21.6,57.5,21.5,57.5 M21.7,56.8L21.7,56.8 L21.7,56.8z M13.7,54.3c0.8,0.4,1.6,0.6,2.6,0.9c1.6,0.4,3.3,0.9,5.1,0.9c0.3-0.6,0.6-1.3,1-2.1c0.3-0.8,0.6-1.6,0.4-2.3 c0-0.1,0-0.1,0-0.2l0-0.3l-2-0.8c-0.8-0.3-1.6-0.6-2.4-0.6c0,0,0,0-0.1,0C16,49.8,14.3,52,13.7,54.3"></path> <path class="st2" d="M16.1,43.7c0.4,0.8,1.5,1,2.2,0.6c0.8-0.4,1.3-1.2,1.6-2c0.6-1.4,0.7-2.9,0.8-4.4c0-0.2,0-0.5,0-0.7 c-1.6,0-3.2,0.2-4.7,0.8c0,1.5,0,3,0,4.5C16,43,16,43.4,16.1,43.7"></path> <path d="M17.6,45.2c-0.3,0-0.6-0.1-0.9-0.2c-0.5-0.2-1-0.6-1.2-1.1c-0.2-0.5-0.2-1-0.2-1.4l0-4.5c0-0.3,0.2-0.6,0.4-0.7 c1.6-0.6,3.3-0.9,5-0.9c0.4,0,0.7,0.3,0.7,0.7c0,0.2,0,0.5,0,0.7c0,1.3-0.1,3-0.8,4.7c-0.5,1.2-1.1,1.9-2,2.3 C18.3,45.2,18,45.2,17.6,45.2 M16.7,38.6l0,4c0,0.3,0,0.6,0.1,0.8c0.1,0.2,0.3,0.3,0.4,0.3c0.3,0.1,0.6,0.1,0.9,0 c0.5-0.2,0.9-0.8,1.2-1.6C19.8,41,20,39.8,20,38C18.9,38,17.8,38.3,16.7,38.6"></path> <path class="st2" d="M21.4,43.5c0.6,0.7,1.7,0.2,2.2-0.5c1.1-1.3,1.5-2.9,1.5-4.6c-1.1-0.6-2.4-1-3.7-1.1c-0.1,1.6-0.2,3.3-0.3,4.9 C21.1,42.7,21.1,43.2,21.4,43.5"></path> <path d="M22.1,44.5L22.1,44.5c-0.5,0-0.9-0.2-1.2-0.6h0c-0.5-0.6-0.4-1.3-0.4-1.7l0.3-4.9c0-0.2,0.1-0.4,0.2-0.5 c0.1-0.1,0.3-0.2,0.5-0.2c1.4,0.1,2.8,0.5,4,1.2c0.2,0.1,0.4,0.4,0.4,0.7c-0.1,2.1-0.6,3.7-1.7,5C23.8,44,23,44.5,22.1,44.5 M22,43 c0,0,0,0.1,0.1,0.1h0c0.3,0,0.7-0.2,1-0.6c0.8-0.9,1.2-2.1,1.3-3.7c-0.7-0.3-1.5-0.6-2.3-0.7l-0.3,4.2C21.9,42.5,21.8,42.9,22,43"></path> <path class="st1" d="M26,55.5c2.4-1.8,3.2-5,3.4-8c-1.7-0.9-4-0.9-5.5-0.1c-2.3,1.3-3.5,4.1-3.5,6.7c0,0.9,0.1,1.8,0.4,2.6 C22.6,56.9,24.5,56.6,26,55.5"></path> <path d="M21.6,57.5c-0.3,0-0.6,0-0.9,0c-0.3,0-0.5-0.2-0.6-0.4c-0.4-0.8-0.5-1.8-0.5-2.9c0.1-3.1,1.6-5.9,3.9-7.3 c1.8-1,4.4-1,6.3,0c0.2,0.1,0.4,0.4,0.4,0.7c-0.2,2.7-0.9,6.5-3.7,8.5C25.1,57,23.5,57.5,21.6,57.5 M21.2,56.1 c1.8,0.1,3.2-0.3,4.3-1.1c2.2-1.6,2.8-4.7,3.1-7c-1.4-0.6-3.2-0.6-4.4,0.1c-1.9,1.1-3.1,3.4-3.2,6.1C21,54.9,21.1,55.5,21.2,56.1"></path> <path d="M10.8,35.6c-0.3,0-0.5-0.2-0.6-0.4c-0.3-0.7-0.3-1.4,0-2.1c0.3-0.7,0.9-1.3,1.5-1.5c0.7-0.2,1.4-0.2,2.1,0.2 c0.7,0.3,1.2,0.9,1.4,1.6c0.1,0.4-0.1,0.8-0.5,0.9c-0.4,0.1-0.8-0.1-0.9-0.5c-0.1-0.3-0.3-0.6-0.7-0.7c-0.3-0.2-0.7-0.2-1-0.1 c-0.3,0.1-0.6,0.4-0.7,0.7c-0.1,0.3-0.2,0.7,0,1c0.2,0.4,0,0.8-0.4,0.9C11,35.6,10.9,35.6,10.8,35.6"></path> <path d="M22.9,33.9c-0.3,0-0.6-0.2-0.7-0.5c-0.3-0.8-0.1-1.7,0.4-2.5c0.5-0.8,1.2-1.3,2.1-1.4c0.8-0.1,1.7,0.1,2.4,0.7 c0.7,0.6,1.1,1.4,1.1,2.3c0,0.4-0.3,0.7-0.7,0.7h0c-0.4,0-0.7-0.3-0.7-0.7c0-0.4-0.2-0.9-0.6-1.2c-0.4-0.3-0.9-0.5-1.3-0.4 c-0.4,0.1-0.8,0.4-1.1,0.8c-0.3,0.4-0.3,0.9-0.2,1.3c0.1,0.4-0.1,0.8-0.5,0.9C23,33.8,23,33.9,22.9,33.9"></path> </g> </svg> 