<?xml version="1.0" encoding="utf-8"?>
<!-- Generator: Adobe Illustrator 28.0.0, SVG Export Plug-In . SVG Version: 6.00 Build 0)  -->
<svg version="1.1" id="Layer_1" xmlns="http://www.w3.org/2000/svg" xmlns:xlink="http://www.w3.org/1999/xlink" x="0px" y="0px"
	 viewBox="0 0 277 71.6" style="enable-background:new 0 0 277 71.6;" xml:space="preserve">
<style type="text/css">
	.st0{fill:#F5D900;}
	.st1{fill:#E05B1A;}
	.st2{fill:#F5F0EE;}
</style>
<g>
	<path class="st0" d="M34.3,23.3c-1.6-3.3-3.9-5.9-7.6-6.7c-6.4-1.4-12.9-2.9-18.5,1.2c-4.5,3.3-7.3,8.4-7.5,14
		C0.5,39.1,3,48.4,11,50.6c2.3,0.7,4.8,0.6,7.3,0.4c4.6-0.3,9.5-0.9,13.2-3.7c3.1-2.3,5-5.9,5.5-9.8s-0.1-7.8-1.5-11.4
		C35.1,25.1,34.7,24.2,34.3,23.3"/>
	<path d="M15.2,51.8c-1.5,0-3-0.1-4.4-0.4C2.5,49.1-0.2,39.5,0,31.9c0.2-5.8,3.1-11.1,7.8-14.5c5.7-4.1,12.1-2.8,18.4-1.5l0.6,0.1
		c3.6,0.7,6.2,2.9,8.2,7c0.4,0.9,0.8,1.8,1.2,2.9c1.5,4.1,2,8,1.5,11.7c-0.6,4.2-2.7,8-5.8,10.3c-3.9,2.9-9.1,3.5-13.6,3.8
		C17.2,51.7,16.2,51.8,15.2,51.8 M16.8,15.9c-2.9,0-5.7,0.6-8.4,2.5c-4.3,3.1-7,8-7.2,13.4c-0.2,7,2.2,15.9,9.8,18
		c2.2,0.7,4.6,0.6,7.1,0.4c4.4-0.2,9.3-0.8,12.9-3.5c2.7-2.1,4.6-5.5,5.2-9.4c0.5-3.4,0.1-7.1-1.4-11c-0.4-1-0.8-1.9-1.2-2.7
		c-1.8-3.7-4.1-5.7-7.2-6.3l-0.6-0.1C22.7,16.5,19.7,15.9,16.8,15.9 M34.3,23.3L34.3,23.3L34.3,23.3z"/>
	<path class="st0" d="M43.4,15.8c-1.6-3.3-3.9-5.9-7.6-6.7c-6.4-1.4-12.9-2.9-18.5,1.2c-4.5,3.3-7.3,8.4-7.5,14
		c-0.3,7.3,2.3,16.6,10.3,18.8c2.3,0.7,4.8,0.6,7.3,0.4c4.6-0.3,9.5-0.9,13.2-3.7c3.1-2.3,5-5.9,5.5-9.8s-0.1-7.8-1.5-11.4
		C44.2,17.6,43.8,16.7,43.4,15.8"/>
	<path d="M24.3,44.3c-1.5,0-3-0.1-4.4-0.5c-3.8-1-6.8-3.7-8.7-7.8c-1.5-3.3-2.3-7.4-2.1-11.6c0.2-5.7,3.1-11.1,7.8-14.5
		C22.6,5.8,29,7.1,35.3,8.4l0.6,0.1c3.6,0.7,6.2,2.9,8.2,7c0.4,0.9,0.8,1.8,1.2,2.9c1.5,4.1,2,8,1.5,11.7c-0.6,4.2-2.7,8-5.8,10.3
		c-3.9,2.9-9.1,3.5-13.6,3.8C26.3,44.2,25.3,44.3,24.3,44.3 M25.9,8.4c-2.9,0-5.7,0.6-8.4,2.5c-4.3,3.1-7,8.1-7.2,13.4
		c-0.4,11.2,5,16.7,9.8,18c2.2,0.7,4.6,0.6,7.1,0.4c4.4-0.2,9.3-0.8,12.9-3.5c2.7-2.1,4.6-5.5,5.2-9.4c0.5-3.4,0.1-7.1-1.4-11
		c-0.4-1-0.8-1.9-1.2-2.7c-1.8-3.7-4.1-5.7-7.2-6.3l-0.6-0.1C31.8,9,28.8,8.4,25.9,8.4 M43.4,15.8L43.4,15.8L43.4,15.8z"/>
	<path class="st0" d="M55.7,11c-1.6-3.2-3.8-5.9-7.6-6.7c-6.4-1.4-12.9-2.9-18.5,1.2c-4.5,3.3-7.3,8.4-7.5,14
		c-0.3,7.3,2.3,16.6,10.3,18.8c2.3,0.7,4.8,0.6,7.3,0.4c4.6-0.3,9.5-0.9,13.2-3.7c3.1-2.3,4.9-6,5.5-9.8c0.5-3.9-0.1-7.8-1.5-11.4
		C56.5,12.8,56.1,11.9,55.7,11"/>
	<path d="M36.6,39.5c-1.5,0-3-0.1-4.4-0.5c-3.8-1-6.8-3.7-8.7-7.8c-1.5-3.3-2.3-7.4-2.1-11.6c0.2-5.7,3.1-11.1,7.8-14.5
		C34.9,1,41.3,2.3,47.6,3.6l0.6,0.1c3.6,0.7,6.2,2.9,8.2,7c0.4,0.9,0.8,1.8,1.2,2.9c1.5,4.1,2,8,1.5,11.7c-0.6,4.2-2.7,8-5.8,10.3
		c-3.9,2.9-9.1,3.5-13.6,3.8C38.6,39.4,37.6,39.5,36.6,39.5 M55.1,11.3C53.3,7.7,51,5.7,47.9,5l-0.7-0.2C41,3.6,35.1,2.3,29.9,6.1
		c-4.3,3.1-7,8.1-7.2,13.4c-0.4,11.2,5,16.7,9.8,18c2.2,0.6,4.6,0.6,7.1,0.4c4.4-0.2,9.3-0.8,12.9-3.5c2.7-2.1,4.6-5.5,5.2-9.4
		c0.5-3.4,0.1-7.1-1.4-11C55.9,13,55.5,12.1,55.1,11.3"/>
	<path class="st0" d="M70.1,8.8c-1.6-3.3-3.8-5.9-7.6-6.7C56.1,0.7,49.6-0.8,44,3.3c-4.5,3.3-7.3,8.4-7.5,14
		c-0.3,7.3,2.3,16.6,10.3,18.8c2.3,0.7,4.8,0.6,7.3,0.4c4.6-0.3,9.5-0.9,13.2-3.7c3.1-2.3,5-5.9,5.5-9.8s-0.1-7.8-1.5-11.4
		C70.9,10.6,70.5,9.7,70.1,8.8"/>
	<path d="M51,37.3c-1.5,0-3-0.1-4.4-0.5c-3.8-1-6.8-3.7-8.7-7.8c-1.5-3.3-2.3-7.4-2.1-11.6c0.2-5.7,3.1-11.1,7.8-14.5
		C49.3-1.2,55.7,0.1,62,1.4l0.6,0.1c3.6,0.7,6.2,2.9,8.2,7c0.4,0.9,0.8,1.8,1.2,2.9c1.5,4.1,2,8,1.5,11.7c-0.6,4.2-2.7,8-5.8,10.3
		c-3.9,2.9-9.1,3.5-13.6,3.8C53,37.2,52,37.3,51,37.3 M52.6,1.4c-2.9,0-5.7,0.6-8.4,2.5C39.9,7,37.2,12,37,17.3
		c-0.4,11.2,5,16.7,9.8,18c2.2,0.7,4.6,0.6,7.1,0.4c4.4-0.2,9.3-0.8,12.9-3.5c2.7-2.1,4.6-5.5,5.2-9.4c0.5-3.4,0.1-7.1-1.4-11
		c-0.4-1-0.8-1.9-1.2-2.7c-1.8-3.7-4.1-5.7-7.2-6.3l-0.6-0.1C58.5,2,55.5,1.4,52.6,1.4 M70.1,8.8L70.1,8.8L70.1,8.8z"/>
	<path class="st0" d="M85.5,8.9c-1.6-3.3-3.9-5.9-7.6-6.7C71.5,0.8,65-0.7,59.4,3.4c-4.5,3.3-7.3,8.4-7.5,14
		c-0.3,7.3,2.3,16.6,10.3,18.8c2.3,0.7,4.8,0.6,7.3,0.4c4.6-0.3,9.5-0.9,13.2-3.7c3.1-2.3,5-5.9,5.5-9.8s-0.1-7.8-1.5-11.4
		C86.3,10.7,85.9,9.8,85.5,8.9"/>
	<path d="M66.4,37.4c-1.6,0-3.1-0.1-4.4-0.5c-3.8-1-6.8-3.7-8.7-7.8c-1.5-3.3-2.3-7.4-2.1-11.6C51.4,11.8,54.3,6.4,59,3
		c5.7-4.1,12.1-2.8,18.4-1.5L78,1.6c3.6,0.7,6.2,2.9,8.2,7c0.4,0.9,0.8,1.8,1.2,2.9c1.5,4.1,2,8,1.5,11.7c-0.6,4.2-2.7,8-5.8,10.3
		c-3.9,2.9-9.1,3.5-13.6,3.8C68.4,37.3,67.4,37.4,66.4,37.4 M84.8,9.2c-1.8-3.7-4.1-5.7-7.3-6.4l-0.6-0.1C70.7,1.5,64.8,0.2,59.6,4
		c-4.3,3.1-7,8.1-7.2,13.4c-0.4,11.2,5,16.7,9.8,18c2.2,0.7,4.6,0.6,7.1,0.4c4.4-0.2,9.3-0.8,12.9-3.5c2.7-2.1,4.6-5.5,5.2-9.4
		c0.5-3.4,0.1-7.1-1.4-11C85.6,10.9,85.2,10,84.8,9.2"/>
	<path class="st0" d="M100.5,11c-1.6-3.2-3.8-5.9-7.7-6.7C86.4,3,80,1.5,74.4,5.5c-4.5,3.3-7.3,8.4-7.5,14
		c-0.3,7.3,2.3,16.6,10.3,18.8c2.3,0.7,4.8,0.6,7.3,0.4c4.6-0.3,9.5-0.9,13.2-3.7c3.1-2.3,5-5.9,5.5-9.8s-0.1-7.8-1.5-11.4
		C101.3,12.8,100.9,11.9,100.5,11"/>
	<path d="M81.5,39.5c-1.6,0-3.1-0.1-4.4-0.5c-3.8-1-6.8-3.7-8.7-7.8c-1.5-3.3-2.3-7.4-2.1-11.6c0.2-5.7,3.1-11.1,7.8-14.5
		C79.8,1,86.2,2.3,92.5,3.6l0.6,0.1c3.6,0.7,6.2,2.9,8.2,7c0.4,0.9,0.8,1.8,1.2,2.9c1.5,4.1,2,8,1.5,11.7c-0.6,4.2-2.7,8-5.8,10.3
		c-3.9,2.9-9.1,3.5-13.6,3.8C83.5,39.4,82.5,39.5,81.5,39.5 M99.9,11.3c-1.8-3.6-4.1-5.6-7.2-6.3L92,4.8c-6.2-1.2-12.1-2.5-17.3,1.3
		c-4.3,3.1-7,8.1-7.2,13.4c-0.4,11.2,5,16.7,9.8,18c2.2,0.7,4.6,0.6,7.1,0.4c4.4-0.2,9.3-0.8,12.9-3.5c2.7-2.1,4.6-5.5,5.2-9.4
		c0.5-3.4,0.1-7.1-1.4-11C100.7,13,100.3,12.1,99.9,11.3L99.9,11.3"/>
	<path class="st0" d="M114.2,15c-1.6-3.2-3.8-5.9-7.6-6.7c-6.4-1.4-12.9-2.9-18.5,1.2c-4.5,3.3-7.3,8.4-7.5,14
		c-0.2,7.3,2.3,16.6,10.3,18.8c2.3,0.7,4.8,0.6,7.3,0.4c4.6-0.3,9.5-0.9,13.2-3.7c3.1-2.3,5-5.9,5.5-9.8s-0.1-7.8-1.5-11.4
		C115,16.8,114.6,15.9,114.2,15"/>
	<path d="M95.1,43.5c-1.5,0-3-0.1-4.4-0.4c-8.3-2.3-11-11.9-10.8-19.5c0.2-5.8,3.1-11.1,7.8-14.5c5.7-4.1,12.1-2.8,18.4-1.5l0.6,0.1
		c3.6,0.7,6.2,2.9,8.2,7c0.4,0.9,0.8,1.8,1.2,2.9c1.5,4.1,2,8,1.5,11.7c-0.6,4.2-2.7,8-5.8,10.3c-3.9,2.9-9.1,3.5-13.6,3.8
		C97.1,43.4,96.1,43.5,95.1,43.5 M113.6,15.3c-1.8-3.6-4.1-5.6-7.2-6.3l-0.7-0.2c-6.2-1.2-12.1-2.5-17.3,1.3c-4.4,3.1-7,8-7.2,13.4
		c-0.2,7,2.2,15.9,9.8,18c2.2,0.6,4.6,0.6,7.1,0.4c4.4-0.2,9.3-0.8,12.9-3.5c2.7-2.1,4.6-5.5,5.2-9.4c0.5-3.4,0.1-7.1-1.4-11
		C114.4,17,114,16.1,113.6,15.3"/>
	<path class="st0" d="M122.2,18.9c-1.6-3.2-3.8-5.8-7.6-6.7c-6.4-1.4-12.9-2.9-18.5,1.2c-4.5,3.3-7.3,8.4-7.5,14
		c-0.3,7.3,2.3,16.6,10.3,18.8c2.3,0.7,4.8,0.6,7.3,0.4c4.6-0.3,9.5-0.9,13.2-3.7c3.1-2.3,5-5.9,5.5-9.8s-0.1-7.8-1.5-11.4
		C123,20.7,122.6,19.8,122.2,18.9"/>
	<path d="M103.1,47.5c-1.5,0-3-0.2-4.4-0.5c-3.8-1-6.8-3.7-8.7-7.8c-1.5-3.3-2.3-7.4-2.1-11.6c0.2-5.7,3.1-11.1,7.8-14.5
		c5.7-4.1,12.1-2.8,18.4-1.5l0.6,0.1c3.6,0.7,6.2,2.9,8.2,7c0.4,0.9,0.8,1.8,1.2,2.9c1.5,4.1,2,8,1.5,11.7c-0.6,4.2-2.7,8-5.8,10.3
		c-3.9,2.9-9.1,3.5-13.6,3.8C105.1,47.4,104.1,47.5,103.1,47.5 M121.6,19.2c-1.8-3.6-4.1-5.6-7.3-6.4l-0.6-0.1
		c-6.2-1.2-12.1-2.5-17.3,1.3c-4.3,3.1-7,8.1-7.2,13.4c-0.4,11.2,5,16.7,9.8,18c2.2,0.7,4.6,0.6,7.1,0.4c4.4-0.2,9.3-0.8,12.9-3.5
		c2.7-2.1,4.6-5.5,5.2-9.4c0.5-3.4,0.1-7.1-1.4-11C122.4,20.9,122,20,121.6,19.2L121.6,19.2"/>
	<path class="st0" d="M131.4,24.5c-1.6-3.2-3.8-5.8-7.6-6.7c-6.4-1.4-12.9-2.9-18.5,1.2c-4.5,3.3-7.3,8.4-7.5,14
		c-0.3,7.3,2.3,16.6,10.3,18.8c2.3,0.7,4.8,0.6,7.3,0.4c4.6-0.3,9.5-0.9,13.2-3.7c3.1-2.3,5-5.9,5.5-9.8s-0.1-7.8-1.5-11.4
		C132.2,26.3,131.8,25.4,131.4,24.5"/>
	<path d="M112.4,53.1c-1.6,0-3.1-0.2-4.4-0.5c-3.8-1-6.8-3.7-8.7-7.8c-1.5-3.3-2.3-7.4-2.1-11.6c0.2-5.7,3.1-11.1,7.8-14.5
		c5.7-4.1,12.1-2.8,18.4-1.5l0.6,0.1c3.6,0.7,6.2,2.9,8.2,7c0.4,0.9,0.8,1.8,1.2,2.9c1.5,4.1,2,8,1.5,11.7c-0.6,4.2-2.7,8-5.8,10.3
		c-3.9,2.9-9.1,3.5-13.6,3.8C114.4,53,113.4,53.1,112.4,53.1 M130.8,24.9c-1.8-3.7-4.1-5.7-7.3-6.4l-0.6-0.1
		c-6.2-1.2-12.1-2.5-17.3,1.3c-4.3,3.1-7,8.1-7.2,13.4c-0.4,11.2,5,16.7,9.8,18c2.2,0.7,4.6,0.6,7.1,0.4c4.4-0.2,9.3-0.8,12.9-3.5
		c2.7-2.1,4.6-5.5,5.2-9.4c0.5-3.4,0.1-7.1-1.4-11C131.6,26.6,131.2,25.7,130.8,24.9L130.8,24.9"/>
	<path class="st0" d="M141.3,30.8c-1.6-3.3-3.9-5.9-7.6-6.7c-6.4-1.4-12.9-2.9-18.5,1.2c-4.5,3.3-7.3,8.4-7.5,14
		c-0.3,7.3,2.3,16.6,10.3,18.8c2.3,0.7,4.8,0.6,7.3,0.4c4.6-0.3,9.5-0.9,13.2-3.7c3.1-2.3,5-5.9,5.5-9.8s-0.1-7.8-1.5-11.4
		C142.1,32.6,141.7,31.7,141.3,30.8"/>
	<path d="M122.2,59.3c-1.5,0-3-0.1-4.4-0.5c-3.8-1-6.8-3.7-8.7-7.8c-1.5-3.3-2.3-7.4-2.1-11.6c0.2-5.7,3.1-11.1,7.8-14.5
		c5.7-4.1,12.1-2.8,18.4-1.5l0.6,0.1c3.6,0.7,6.2,2.9,8.2,7c0.4,0.9,0.8,1.8,1.2,2.9c1.5,4.1,2,8,1.5,11.7c-0.6,4.2-2.7,8-5.8,10.3
		c-3.9,2.9-9.1,3.5-13.6,3.8C124.2,59.2,123.2,59.3,122.2,59.3 M140.7,31.1c-1.8-3.7-4.1-5.6-7.3-6.4l-0.6-0.1
		c-6.2-1.2-12.1-2.5-17.3,1.3c-4.3,3.1-7,8.1-7.2,13.4c-0.4,11.2,5,16.7,9.8,18c2.2,0.7,4.6,0.6,7.1,0.4c4.4-0.2,9.3-0.8,12.9-3.5
		c2.7-2.1,4.6-5.5,5.2-9.4c0.5-3.4,0.1-7.1-1.4-11C141.5,32.8,141.1,31.9,140.7,31.1L140.7,31.1"/>
	<path class="st0" d="M151.2,36.6c-1.5-3.2-3.8-5.8-7.6-6.7c-6.4-1.4-12.9-2.9-18.5,1.2c-4.5,3.3-7.3,8.4-7.5,14
		c-0.3,7.3,2.3,16.6,10.3,18.8c2.3,0.7,4.8,0.6,7.3,0.4c4.6-0.3,9.5-0.9,13.2-3.7c3.1-2.3,4.9-6,5.5-9.8c0.5-3.9-0.1-7.8-1.5-11.4
		C152,38.4,151.6,37.5,151.2,36.6"/>
	<path d="M132.2,65.2c-1.6,0-3.1-0.2-4.4-0.5c-3.8-1-6.8-3.7-8.7-7.8c-1.5-3.3-2.3-7.4-2.1-11.6c0.2-5.7,3.1-11.1,7.8-14.5
		c5.7-4.1,12.1-2.8,18.4-1.5l0.6,0.1c3.6,0.7,6.2,2.9,8.2,7c0.4,0.9,0.8,1.8,1.2,2.9c1.5,4.1,2,8,1.5,11.7c-0.6,4.2-2.7,8-5.8,10.3
		c-3.9,2.9-9.1,3.5-13.6,3.8C134.2,65.1,133.2,65.2,132.2,65.2 M133.7,29.3c-2.9,0-5.7,0.6-8.4,2.5c-4.3,3.1-7,8.1-7.2,13.4
		c-0.4,11.2,5,16.7,9.8,18c2.2,0.7,4.6,0.6,7.1,0.4c4.4-0.2,9.3-0.8,12.9-3.5c2.7-2.1,4.6-5.5,5.2-9.4c0.5-3.4,0.1-7.1-1.4-11
		c-0.4-1-0.8-1.9-1.2-2.7c-1.8-3.7-4.1-5.7-7.2-6.3l-0.6-0.1C139.6,29.9,136.6,29.3,133.7,29.3 M151.2,36.6L151.2,36.6L151.2,36.6z"
		/>
	<path class="st0" d="M160.7,41.1c-1.6-3.3-3.8-5.9-7.6-6.7c-6.4-1.4-12.9-2.9-18.5,1.2c-4.5,3.3-7.3,8.4-7.5,14
		c-0.3,7.3,2.3,16.6,10.3,18.8c2.3,0.7,4.8,0.6,7.3,0.4c4.6-0.3,9.5-0.9,13.2-3.7c3.1-2.3,4.9-6,5.5-9.8c0.5-3.9-0.1-7.8-1.5-11.4
		C161.5,42.9,161.1,42,160.7,41.1"/>
	<path d="M141.6,69.6c-1.5,0-3-0.1-4.4-0.5c-3.8-1-6.8-3.7-8.7-7.8c-1.5-3.3-2.3-7.4-2.1-11.6c0.2-5.7,3.1-11.1,7.8-14.5
		c5.7-4.1,12.1-2.8,18.4-1.5l0.6,0.1c3.6,0.7,6.2,2.9,8.2,7c0.4,0.9,0.8,1.8,1.2,2.9c1.5,4.1,2,8,1.5,11.7c-0.6,4.2-2.7,8-5.8,10.3
		c-3.9,2.9-9.1,3.5-13.6,3.8C143.6,69.5,142.6,69.6,141.6,69.6 M160.1,41.4c-1.8-3.7-4.1-5.7-7.3-6.4l-0.6-0.1
		c-6.2-1.2-12.1-2.5-17.3,1.3c-4.3,3.1-7,8.1-7.2,13.4c-0.4,11.2,5,16.7,9.8,18c2.2,0.7,4.6,0.6,7.1,0.4c4.4-0.2,9.3-0.8,12.9-3.5
		c2.7-2.1,4.6-5.5,5.2-9.4c0.5-3.4,0.1-7.1-1.4-11C160.9,43.1,160.5,42.2,160.1,41.4L160.1,41.4"/>
	<path class="st0" d="M169.1,43.1c-1.6-3.3-3.8-5.9-7.6-6.7c-6.4-1.4-12.9-2.9-18.5,1.2c-4.5,3.3-7.3,8.4-7.5,14
		c-0.2,7.3,2.3,16.6,10.3,18.8c2.3,0.7,4.8,0.6,7.3,0.4c4.6-0.3,9.5-0.9,13.2-3.7c3.1-2.3,4.9-6,5.5-9.8c0.5-3.9-0.1-7.8-1.5-11.4
		C169.9,44.9,169.5,44,169.1,43.1"/>
	<path d="M150,71.6c-1.5,0-3-0.1-4.4-0.4c-8.3-2.3-11-11.9-10.8-19.5c0.2-5.8,3.1-11.1,7.8-14.5c5.7-4.1,12.1-2.8,18.4-1.5l0.6,0.1
		c3.6,0.7,6.2,2.9,8.2,7c0.4,0.9,0.8,1.8,1.2,2.9c1.5,4.1,2,8,1.5,11.7c-0.6,4.2-2.7,8-5.8,10.3c-3.9,2.9-9.1,3.5-13.6,3.8
		C152,71.5,151,71.6,150,71.6 M168.5,43.4c-1.8-3.7-4.1-5.7-7.3-6.4l-0.6-0.1c-6.2-1.2-12.1-2.5-17.3,1.3c-4.3,3.1-7,8-7.2,13.4
		c-0.2,7,2.2,15.9,9.8,18c2.2,0.7,4.6,0.6,7.1,0.4c4.4-0.2,9.3-0.8,12.9-3.5c2.7-2.1,4.6-5.5,5.2-9.4c0.5-3.4,0.1-7.1-1.4-11
		C169.3,45.1,168.9,44.2,168.5,43.4L168.5,43.4"/>
	<path class="st0" d="M177.6,41.3c-1.6-3.2-3.9-5.8-7.6-6.7c-6.4-1.4-12.9-2.9-18.5,1.2c-4.5,3.3-7.3,8.4-7.5,14
		c-0.3,7.3,2.3,16.6,10.3,18.8c2.3,0.7,4.8,0.6,7.3,0.4c4.6-0.3,9.5-0.9,13.2-3.7c3.1-2.3,4.9-6,5.5-9.8c0.5-3.9-0.1-7.8-1.5-11.4
		C178.4,43.1,178,42.2,177.6,41.3"/>
	<path d="M158.5,69.9c-1.5,0-3-0.2-4.4-0.5c-3.8-1-6.8-3.7-8.7-7.8c-1.5-3.3-2.3-7.4-2.1-11.6c0.2-5.7,3.1-11.1,7.8-14.5
		c5.7-4.1,12.1-2.8,18.4-1.5l0.6,0.1c3.6,0.7,6.2,2.9,8.2,7c0.4,0.9,0.8,1.8,1.2,2.9c1.5,4.1,2,8,1.5,11.7c-0.6,4.2-2.7,8-5.8,10.3
		c-3.9,2.9-9.1,3.5-13.6,3.8C160.5,69.8,159.5,69.9,158.5,69.9 M176.9,41.6c-1.7-3.6-4-5.6-7.3-6.4l-0.6-0.1
		c-6.2-1.2-12.1-2.5-17.3,1.3c-4.3,3.1-7,8.1-7.2,13.4c-0.4,11.2,5,16.7,9.8,18c2.2,0.7,4.6,0.6,7.1,0.4c4.4-0.2,9.3-0.8,12.9-3.5
		c2.7-2.1,4.6-5.5,5.2-9.4c0.5-3.4,0.1-7.1-1.4-11C177.7,43.3,177.3,42.4,176.9,41.6"/>
	<path class="st0" d="M186.7,36.3c-1.6-3.2-3.9-5.9-7.6-6.7c-6.4-1.4-12.9-2.9-18.5,1.2c-4.5,3.3-7.3,8.4-7.5,14
		c-0.3,7.3,2.3,16.6,10.3,18.8c2.3,0.7,4.8,0.6,7.3,0.4c4.6-0.3,9.5-0.9,13.2-3.7c3.1-2.3,4.9-6,5.5-9.8c0.5-3.9-0.1-7.8-1.5-11.4
		C187.5,38.1,187.1,37.2,186.7,36.3"/>
	<path d="M167.6,64.8c-1.5,0-3-0.1-4.4-0.5c-3.8-1-6.8-3.7-8.7-7.8c-1.5-3.3-2.3-7.4-2.1-11.6c0.2-5.7,3.1-11.1,7.8-14.5
		c5.7-4.1,12.1-2.8,18.4-1.5l0.6,0.1c3.6,0.7,6.2,2.9,8.2,7c0.4,0.9,0.8,1.8,1.2,2.9c1.5,4.1,2,8,1.5,11.7c-0.6,4.2-2.7,8-5.8,10.3
		c-3.9,2.9-9.1,3.5-13.6,3.8C169.6,64.7,168.6,64.8,167.6,64.8 M186,36.6c-1.8-3.6-4-5.6-7.2-6.3l-0.7-0.2
		c-6.2-1.2-12.1-2.5-17.3,1.3c-4.3,3.1-7,8.1-7.2,13.4c-0.4,11.2,5,16.7,9.8,18c2.2,0.6,4.6,0.6,7.1,0.4c4.4-0.2,9.3-0.8,12.9-3.5
		c2.7-2.1,4.6-5.5,5.2-9.4c0.5-3.4,0.1-7.1-1.4-11C186.8,38.3,186.4,37.4,186,36.6L186,36.6"/>
	<path class="st0" d="M196.1,29.6c-1.6-3.2-3.9-5.9-7.6-6.7c-6.4-1.4-12.9-2.9-18.5,1.2c-4.5,3.3-7.3,8.4-7.5,14
		c-0.3,7.3,2.3,16.6,10.3,18.8c2.3,0.7,4.8,0.6,7.3,0.4c4.6-0.3,9.5-0.9,13.2-3.7c3.1-2.3,4.9-6,5.5-9.8c0.5-3.9-0.1-7.8-1.5-11.4
		C196.9,31.4,196.5,30.5,196.1,29.6"/>
	<path d="M177,58.1c-1.5,0-3-0.1-4.4-0.5c-3.8-1-6.8-3.7-8.7-7.8c-1.5-3.3-2.3-7.4-2.1-11.6c0.2-5.7,3.1-11.1,7.8-14.5
		c5.7-4.1,12.1-2.8,18.4-1.5l0.6,0.1c3.6,0.7,6.2,2.9,8.2,7c0.4,0.9,0.8,1.8,1.2,2.9c1.5,4.1,2,8,1.5,11.7c-0.6,4.2-2.7,8-5.8,10.3
		c-3.9,2.9-9.1,3.5-13.6,3.8C179,58,178,58.1,177,58.1 M178.6,22.2c-2.9,0-5.7,0.7-8.4,2.5c-4.3,3.1-7,8.1-7.2,13.4
		c-0.4,11.2,5,16.7,9.8,18c2.2,0.7,4.6,0.6,7.1,0.4c4.4-0.2,9.3-0.8,12.9-3.5c2.7-2.1,4.6-5.5,5.2-9.4c0.5-3.4,0.1-7.1-1.4-11
		c-0.4-1-0.8-1.9-1.2-2.7c-1.8-3.7-4.1-5.7-7.2-6.3l-0.6-0.1C184.5,22.8,181.5,22.2,178.6,22.2 M196.1,29.6L196.1,29.6L196.1,29.6z"
		/>
	<path class="st0" d="M205.5,22.8c-1.6-3.3-3.9-5.9-7.6-6.7c-6.4-1.4-12.9-2.9-18.5,1.2c-4.5,3.3-7.3,8.4-7.5,14
		c-0.3,7.3,2.3,16.6,10.3,18.8c2.3,0.7,4.8,0.6,7.3,0.4c4.6-0.3,9.5-0.9,13.2-3.7c3.1-2.3,4.9-6,5.5-9.8c0.5-3.9-0.1-7.8-1.5-11.4
		C206.3,24.6,205.9,23.7,205.5,22.8"/>
	<path d="M186.4,51.3c-1.5,0-3-0.2-4.4-0.5c-3.8-1-6.8-3.7-8.7-7.8c-1.5-3.3-2.3-7.4-2.1-11.6c0.2-5.7,3.1-11.1,7.8-14.5
		c5.7-4.1,12.1-2.8,18.4-1.5l0.6,0.1c3.6,0.7,6.2,2.9,8.2,7c0.4,0.9,0.8,1.8,1.2,2.9c1.5,4.1,2,8,1.5,11.7c-0.6,4.2-2.7,8-5.8,10.3
		c-3.9,2.9-9.1,3.5-13.6,3.8C188.4,51.2,187.4,51.3,186.4,51.3 M204.9,23.1c-1.8-3.7-4.1-5.7-7.3-6.4l-0.6-0.1
		c-6.2-1.2-12.1-2.5-17.3,1.3c-4.3,3.1-7,8.1-7.2,13.4c-0.4,11.2,5,16.7,9.8,18c2.2,0.7,4.6,0.6,7.1,0.4c4.4-0.2,9.3-0.8,12.9-3.5
		c2.7-2.1,4.6-5.5,5.2-9.4c0.5-3.4,0.1-7.1-1.4-11C205.7,24.8,205.3,23.9,204.9,23.1"/>
	<path class="st0" d="M214.6,17.4c-1.6-3.3-3.9-5.9-7.6-6.7c-6.4-1.4-12.9-2.9-18.5,1.2c-4.5,3.3-7.3,8.4-7.5,14
		c-0.3,7.3,2.3,16.6,10.3,18.8c2.3,0.7,4.8,0.6,7.3,0.4c4.6-0.3,9.5-0.9,13.2-3.7c3.1-2.3,4.9-6,5.5-9.8c0.5-3.9-0.1-7.8-1.5-11.4
		C215.4,19.2,215,18.3,214.6,17.4"/>
	<path d="M195.5,45.9c-1.5,0-3-0.1-4.4-0.5c-3.8-1-6.8-3.7-8.7-7.8c-1.5-3.3-2.3-7.4-2.1-11.6c0.2-5.7,3.1-11.1,7.8-14.5
		c5.7-4.1,12.1-2.8,18.4-1.5l0.6,0.1c3.6,0.7,6.2,2.9,8.2,7c0.4,0.9,0.8,1.8,1.2,2.9c1.5,4.1,2,8,1.5,11.7c-0.6,4.2-2.7,8-5.8,10.3
		c-3.9,2.9-9.1,3.5-13.6,3.8C197.5,45.8,196.5,45.9,195.5,45.9 M197.1,10c-2.9,0-5.7,0.6-8.3,2.5c-4.3,3.1-7,8.2-7.3,13.4
		c-0.4,11.2,5,16.7,9.8,18c2.2,0.7,4.6,0.6,7.1,0.4c4.4-0.2,9.3-0.8,12.9-3.5c2.7-2.1,4.6-5.5,5.2-9.4c0.5-3.4,0.1-7.1-1.4-11
		c-0.4-1-0.8-1.9-1.2-2.7c-1.8-3.7-4.1-5.7-7.2-6.3l-0.6-0.1C203,10.6,200,10,197.1,10 M214.6,17.4L214.6,17.4L214.6,17.4z"/>
	<path class="st0" d="M223.1,15c-1.6-3.2-3.9-5.9-7.7-6.7C208.9,7,202.5,5.5,197,9.5c-4.5,3.3-7.3,8.4-7.5,14
		c-0.2,7.3,2.3,16.6,10.3,18.8c2.3,0.7,4.8,0.6,7.3,0.4c4.6-0.3,9.5-0.9,13.2-3.7c3.1-2.3,4.9-6,5.5-9.8c0.5-3.9-0.1-7.8-1.5-11.4
		C223.9,16.8,223.5,15.9,223.1,15"/>
	<path d="M204,43.5c-1.5,0-3.1-0.1-4.6-0.5c-8.3-2.3-11-11.9-10.8-19.5c0.2-5.8,3.1-11.1,7.8-14.5c5.7-4.1,12.2-2.8,18.6-1.4
		l0.6,0.1c3.6,0.7,6.2,2.9,8.2,7c0.4,0.9,0.8,1.8,1.2,2.9c1.5,4.1,2,8,1.5,11.7c-0.6,4.2-2.7,8-5.8,10.3c-3.9,2.9-9.1,3.5-13.6,3.8
		C206,43.4,205,43.5,204,43.5 M222.4,15.3c-1.8-3.6-4.1-5.6-7.2-6.3l-0.7-0.2c-6.2-1.2-12.1-2.5-17.3,1.3c-4.3,3.1-7,8-7.2,13.4
		c-0.2,7,2.2,15.9,9.8,18c2.2,0.6,4.6,0.6,7.1,0.4c4.4-0.2,9.3-0.8,12.9-3.5c2.7-2.1,4.6-5.5,5.2-9.4c0.5-3.4,0.1-7.1-1.4-11
		C223.2,17,222.8,16.1,222.4,15.3L222.4,15.3"/>
	<path class="st0" d="M230,15.1c-1.6-3.2-3.9-5.9-7.7-6.7c-6.5-1.3-12.9-2.8-18.4,1.2c-4.5,3.3-7.3,8.4-7.5,14
		c-0.3,7.3,2.3,16.6,10.3,18.8c2.3,0.7,4.8,0.6,7.3,0.4c4.6-0.3,9.5-0.9,13.2-3.7c3.1-2.3,4.9-6,5.5-9.8c0.5-3.9-0.1-7.8-1.5-11.4
		C230.8,16.9,230.4,16,230,15.1"/>
	<path d="M210.9,43.6c-1.5,0-3-0.1-4.6-0.6c-3.8-1-6.8-3.7-8.7-7.8c-1.5-3.3-2.3-7.4-2.1-11.6c0.2-5.7,3.1-11.1,7.8-14.5
		c5.8-4.1,12.2-2.8,18.5-1.5l0.7,0.2c3.6,0.7,6.2,2.9,8.2,7c0.4,0.9,0.8,1.8,1.2,2.9c1.5,4.1,2,8,1.5,11.7c-0.6,4.2-2.7,8-5.8,10.3
		c-3.9,2.9-9.1,3.5-13.6,3.8C212.9,43.5,211.9,43.6,210.9,43.6 M229.3,15.4c-1.7-3.6-4-5.6-7.2-6.3L221.5,9
		c-6.2-1.3-12.1-2.5-17.4,1.2c-4.3,3.1-7,8.1-7.2,13.4c-0.4,11.2,5,16.7,9.8,18c2.2,0.7,4.6,0.6,7.1,0.4c4.4-0.2,9.3-0.8,12.9-3.5
		c2.7-2.1,4.6-5.5,5.2-9.4c0.5-3.4,0.1-7.1-1.4-11C230.1,17.1,229.7,16.2,229.3,15.4"/>
	<path class="st0" d="M238.7,16.1c-1.6-3.3-3.8-5.9-7.6-6.7c-6.4-1.4-12.9-2.9-18.5,1.2c-4.5,3.3-7.3,8.4-7.5,14
		c-0.3,7.3,2.3,16.6,10.3,18.8c2.3,0.7,4.8,0.6,7.3,0.4c4.6-0.3,9.5-0.9,13.2-3.7c3.1-2.3,4.9-6,5.5-9.8c0.5-3.9-0.1-7.8-1.5-11.4
		C239.5,17.9,239.1,17,238.7,16.1"/>
	<path d="M219.6,44.6c-1.5,0-3-0.2-4.4-0.5c-3.8-1-6.8-3.7-8.7-7.8c-1.5-3.3-2.3-7.4-2.1-11.6c0.2-5.7,3.1-11.1,7.8-14.5
		c5.7-4.1,12.1-2.8,18.4-1.5l0.6,0.1c3.6,0.7,6.2,2.9,8.2,7c0.4,0.9,0.8,1.8,1.2,2.9c1.5,4.1,2,8,1.5,11.7c-0.6,4.2-2.7,8-5.8,10.3
		c-3.9,2.9-9.1,3.5-13.6,3.8C221.6,44.5,220.6,44.6,219.6,44.6 M238.1,16.4c-1.8-3.7-4.1-5.7-7.3-6.4l-0.6-0.1
		c-6.2-1.2-12.1-2.5-17.3,1.3c-4.3,3.1-7,8.1-7.2,13.4c-0.4,11.2,5,16.7,9.8,18c2.2,0.7,4.6,0.6,7.1,0.4c4.4-0.2,9.3-0.8,12.9-3.5
		c2.7-2.1,4.6-5.5,5.2-9.4c0.5-3.4,0.1-7.1-1.4-11C238.9,18.1,238.5,17.2,238.1,16.4"/>
	<path class="st0" d="M248.4,18.1c-1.6-3.3-3.9-5.9-7.6-6.7c-6.4-1.4-12.9-2.9-18.5,1.2c-4.5,3.3-7.3,8.4-7.5,14
		c-0.3,7.3,2.3,16.6,10.3,18.8c2.3,0.7,4.8,0.6,7.3,0.4c4.6-0.3,9.5-0.9,13.2-3.7c3.1-2.3,4.9-6,5.5-9.8c0.5-3.9-0.1-7.8-1.5-11.4
		C249.2,19.9,248.8,19,248.4,18.1"/>
	<path d="M229.3,46.6c-1.5,0-3.1-0.1-4.4-0.5c-3.8-1-6.8-3.7-8.7-7.8c-1.5-3.3-2.3-7.4-2.1-11.6c0.2-5.7,3.1-11.1,7.8-14.5
		c5.7-4.1,12.1-2.8,18.4-1.5l0.6,0.1c3.6,0.7,6.2,2.9,8.2,7c0.4,0.9,0.8,1.8,1.2,2.9c1.5,4.1,2,8,1.5,11.7c-0.6,4.2-2.7,8-5.8,10.3
		c-3.9,2.9-9.1,3.5-13.6,3.8C231.3,46.5,230.3,46.6,229.3,46.6 M247.7,18.4c-1.8-3.7-4.1-5.7-7.2-6.3l-0.6-0.1
		c-6.3-1.3-12.1-2.5-17.4,1.2c-4.3,3.1-7,8.1-7.2,13.4c-0.4,11.2,5,16.7,9.8,18c2.2,0.7,4.6,0.6,7.1,0.4c4.4-0.2,9.3-0.8,12.9-3.5
		c2.7-2.1,4.6-5.5,5.2-9.4c0.5-3.4,0.1-7.1-1.4-11C248.5,20.1,248.1,19.2,247.7,18.4"/>
	<path class="st0" d="M257.9,21.4c-1.5-3.2-3.8-5.9-7.6-6.7c-6.4-1.4-12.9-2.9-18.5,1.2c-4.5,3.3-7.3,8.4-7.5,14
		c-0.3,7.3,2.3,16.6,10.3,18.8c2.3,0.7,4.8,0.6,7.3,0.4c4.6-0.3,9.5-0.9,13.2-3.7c3.1-2.3,4.9-6,5.5-9.8c0.5-3.9-0.1-7.8-1.5-11.4
		C258.7,23.2,258.3,22.3,257.9,21.4"/>
	<path d="M238.9,49.9c-1.6,0-3.1-0.1-4.4-0.5c-3.8-1-6.8-3.7-8.7-7.8c-1.5-3.3-2.3-7.4-2.1-11.6c0.2-5.7,3.1-11.1,7.8-14.5
		c5.7-4.1,12.1-2.8,18.4-1.5l0.6,0.1c3.6,0.7,6.2,2.9,8.2,7c0.4,0.9,0.8,1.8,1.2,2.9c1.5,4.1,2,8,1.5,11.7c-0.6,4.2-2.7,8-5.8,10.3
		c-3.9,2.9-9.1,3.5-13.6,3.8C240.9,49.8,239.9,49.9,238.9,49.9 M257.3,21.7c-1.8-3.6-4.1-5.6-7.3-6.4l-0.6-0.1
		c-6.2-1.2-12.1-2.5-17.3,1.3c-4.3,3.1-7,8.1-7.2,13.4c-0.4,11.2,5,16.7,9.8,18c2.2,0.7,4.6,0.6,7.1,0.4c4.4-0.2,9.3-0.8,12.9-3.5
		c2.7-2.1,4.6-5.5,5.2-9.4c0.5-3.4,0.1-7.1-1.4-11C258.1,23.4,257.7,22.5,257.3,21.7"/>
	<path class="st0" d="M266.5,26.3c-1.5-3.3-3.8-5.9-7.6-6.7c-6.4-1.4-12.9-2.9-18.5,1.2c-4.5,3.3-7.3,8.4-7.5,14
		c-0.3,7.3,2.3,16.6,10.3,18.8c2.3,0.7,4.8,0.6,7.3,0.4c4.6-0.3,9.5-0.9,13.2-3.7c3.1-2.3,4.9-6,5.5-9.8c0.5-3.9-0.1-7.8-1.5-11.4
		C267.3,28.1,266.9,27.2,266.5,26.3"/>
	<path d="M247.5,54.8c-1.6,0-3.1-0.1-4.4-0.5c-3.8-1-6.8-3.7-8.7-7.8c-1.5-3.3-2.3-7.4-2.1-11.6c0.2-5.7,3.1-11.1,7.8-14.5
		c5.7-4.1,12.1-2.8,18.4-1.5l0.6,0.1c3.6,0.7,6.2,2.9,8.2,7c0.4,0.9,0.8,1.8,1.2,2.9c1.5,4.1,2,8,1.5,11.7c-0.6,4.2-2.7,8-5.8,10.3
		c-3.9,2.9-9.1,3.5-13.6,3.8C249.5,54.7,248.5,54.8,247.5,54.8 M265.9,26.6c-1.8-3.7-4.1-5.7-7.3-6.4l-0.6-0.1
		c-6.2-1.2-12.1-2.5-17.3,1.3c-4.3,3.1-7,8.1-7.2,13.4c-0.4,11.2,5,16.7,9.8,18c2.2,0.7,4.6,0.6,7.1,0.4c4.4-0.2,9.3-0.8,12.9-3.5
		c2.7-2.1,4.6-5.5,5.2-9.4c0.5-3.4,0.1-7.1-1.4-11C266.7,28.3,266.3,27.4,265.9,26.6"/>
	<path class="st0" d="M273.2,32.9c-1.6-3.2-3.8-5.8-7.6-6.7c-6.4-1.4-12.9-2.9-18.5,1.2c-4.5,3.3-7.3,8.4-7.5,14
		c-0.2,7.3,2.3,16.6,10.3,18.8c2.3,0.7,4.8,0.6,7.3,0.4c4.6-0.3,9.5-0.9,13.2-3.7c3.1-2.3,4.9-6,5.5-9.8c0.5-3.9-0.1-7.8-1.5-11.4
		C274,34.7,273.6,33.8,273.2,32.9"/>
	<path d="M254.1,61.5c-1.5,0-3-0.2-4.4-0.5c-8.3-2.3-11-11.9-10.8-19.5c0.2-5.8,3.1-11.1,7.8-14.5c5.7-4.1,12.1-2.8,18.4-1.5
		l0.6,0.1c3.6,0.7,6.2,2.9,8.2,7c0.4,0.9,0.8,1.8,1.2,2.9c1.5,4.1,2,8,1.5,11.7c-0.6,4.2-2.7,8-5.8,10.3c-3.9,3-9.1,3.5-13.6,3.9
		C256.1,61.4,255.1,61.5,254.1,61.5 M255.7,25.6c-2.9,0-5.7,0.6-8.3,2.5c-4.3,3.1-7,8-7.2,13.4c-0.2,7,2.2,15.9,9.8,18
		c2.2,0.7,4.6,0.6,7.1,0.4c4.4-0.2,9.3-0.8,12.9-3.5c2.7-2.1,4.6-5.5,5.2-9.4c0.5-3.4,0.1-7.1-1.4-11c-0.4-1-0.8-1.9-1.2-2.7
		c-1.8-3.7-4.1-5.7-7.2-6.3l-0.7-0.1C261.6,26.2,258.6,25.6,255.7,25.6 M273.2,32.9L273.2,32.9L273.2,32.9z"/>
	<path d="M267.6,46.8c-1.4-12.4-21.4-13.2-20.2,0.5c0.2,3.1,0.9,6.4,3.4,8.2c2.8,2,6.7,1.2,10,0.3c1-0.3,2.1-0.6,3-1.1
		C266.5,53.2,268,49.9,267.6,46.8"/>
	<path d="M255.2,57.5c-1.7,0-3.4-0.4-4.9-1.5c-2.8-2.1-3.5-6-3.7-8.7c-0.6-7.2,4.3-10.3,8.6-10.7c5.7-0.6,12.2,3,13,10.1
		c0.4,3.5-1.3,7-4.1,8.6c-1.1,0.6-2.2,0.9-3.2,1.2C259.1,57.1,257.1,57.5,255.2,57.5 M266.9,46.9c-0.7-6.2-6.4-9.4-11.5-8.8
		c-3.9,0.4-7.8,3-7.3,9.2c0.2,2.5,0.7,6,3.1,7.7c2.5,1.8,6,1.1,9.4,0.2c1.1-0.4,2.1-0.6,2.9-1.1C265.8,52.8,267.2,49.8,266.9,46.9
		L266.9,46.9"/>
	<path class="st1" d="M253.5,51.4c-0.3,0.9,0,1.9,0.5,2.7c0.3,0.9,0.7,1.8,1.2,2.6c1.9,0.1,3.9-0.4,5.7-0.9c1-0.3,2.1-0.6,3-1.1
		c0,0,0-0.1,0.1-0.1c0-0.2-0.1-0.3-0.1-0.5c-0.7-2.6-2.7-5.1-5.3-5.1c-0.9,0.1-1.8,0.4-2.6,0.7c-0.9,0.3-1.7,0.6-2.5,0.9V51.4"/>
	<path d="M255.3,57.5c-0.1,0-0.2,0-0.3,0.1c-0.2,0-0.5-0.2-0.6-0.4c-0.4-0.8-0.8-1.6-1.2-2.7c-0.3-1-0.7-2.1-0.4-3.2v-0.7
		c0-0.3,0.2-0.6,0.5-0.7l2.5-0.9c0.8-0.3,1.8-0.7,2.8-0.7h0.1c3,0,5.2,2.9,5.9,5.6c0,0.1,0.1,0.3,0.1,0.5c0.1,0.3,0,0.6-0.3,0.8
		c-0.1,0-0.1,0.1-0.2,0.1c-1.1,0.6-2.2,0.9-3.2,1.2C259.3,57,257.3,57.5,255.3,57.5 M255.1,56.8L255.1,56.8L255.1,56.8z M263.1,54.3
		c-0.6-2.3-2.3-4.5-4.6-4.5c-0.1,0-0.1,0-0.1,0c-0.8,0-1.6,0.3-2.4,0.6l-2,0.8v0.3c0,0.1,0,0.1,0,0.2c-0.2,0.7,0.1,1.5,0.4,2.3
		c0.4,0.8,0.7,1.5,1,2.1c1.8,0,3.5-0.5,5.1-0.9C261.5,54.9,262.3,54.7,263.1,54.3"/>
	<path class="st2" d="M260.7,43.7c0.1-0.3,0.1-0.7,0.1-1.2c0-1.5,0-3,0-4.5c-1.5-0.6-3.1-0.8-4.7-0.8c0,0.2,0,0.5,0,0.7
		c0.1,1.5,0.2,3,0.8,4.4c0.3,0.8,0.8,1.6,1.6,2C259.2,44.7,260.3,44.5,260.7,43.7"/>
	<path d="M259.2,45.2c-0.4,0-0.7,0-1-0.4c-0.9-0.4-1.5-1.1-2-2.3c-0.7-1.7-0.8-3.4-0.8-4.7c0-0.2,0-0.5,0-0.7c0-0.4,0.3-0.7,0.7-0.7
		c1.7,0,3.4,0.3,5,0.9c0.2,0.1,0.4,0.4,0.4,0.7v4.5c0,0.4,0,0.9-0.2,1.4s-0.7,0.9-1.2,1.1C259.8,45.1,259.5,45.2,259.2,45.2
		 M260.1,38.6c-1.1-0.3-2.2-0.6-3.3-0.6c0,1.8,0.2,3,0.7,4.1c0.3,0.8,0.7,1.4,1.2,1.6c0.3,0.1,0.6,0.1,0.9,0c0.1,0,0.3-0.1,0.4-0.3
		c0.1-0.2,0.1-0.5,0.1-0.8V38.6"/>
	<path class="st2" d="M255.4,43.5c0.3-0.3,0.3-0.8,0.3-1.3c-0.1-1.6-0.2-3.3-0.3-4.9c-1.3,0.1-2.6,0.5-3.7,1.1
		c0,1.7,0.4,3.3,1.5,4.6C253.7,43.7,254.8,44.2,255.4,43.5"/>
	<path d="M254.7,44.5c-0.9,0-1.7-0.5-2.1-1c-1.1-1.3-1.6-2.9-1.7-5c0-0.3,0.2-0.6,0.4-0.7c1.2-0.7,2.6-1.1,4-1.2
		c0.2,0,0.4,0.1,0.5,0.2c0.1,0.1,0.2,0.3,0.2,0.5l0.3,4.9c0,0.4,0.1,1.1-0.4,1.7l0,0C255.6,44.3,255.2,44.5,254.7,44.5L254.7,44.5
		 M254.8,43c0.2-0.1,0.1-0.5,0.2-0.7l-0.3-4.2c-0.8,0.1-1.6,0.4-2.3,0.7c0.1,1.6,0.5,2.8,1.3,3.7C254,42.9,254.4,43.1,254.8,43
		L254.8,43C254.8,43.1,254.8,43,254.8,43"/>
	<path class="st1" d="M250.8,55.5c1.5,1.1,3.4,1.4,5.2,1.2c0.3-0.8,0.4-1.7,0.4-2.6c0-2.6-1.2-5.4-3.5-6.7c-1.5-0.8-3.8-0.8-5.5,0.1
		C247.6,50.5,248.4,53.7,250.8,55.5"/>
	<path d="M255.2,57.5c-1.9,0-3.5-0.5-4.9-1.4c-2.8-2-3.5-5.8-3.7-8.5c0-0.3,0.2-0.6,0.4-0.7c1.9-1,4.5-1,6.3,0
		c2.3,1.4,3.8,4.2,3.9,7.3c0,1.1-0.1,2.1-0.5,2.9c-0.1,0.2-0.3,0.4-0.6,0.4C255.8,57.5,255.5,57.5,255.2,57.5 M255.6,56.1
		c0.1-0.6,0.2-1.2,0.2-1.9c-0.1-2.7-1.3-5-3.2-6.1c-1.2-0.7-3-0.7-4.4-0.1c0.3,2.3,0.9,5.4,3.1,7C252.4,55.8,253.8,56.2,255.6,56.1"
		/>
	<path d="M266,35.6c-0.1,0-0.2,0-0.2,0c-0.4-0.1-0.6-0.5-0.4-0.9c0.2-0.3,0.1-0.7,0-1s-0.4-0.6-0.7-0.7c-0.3-0.1-0.7-0.1-1,0.1
		c-0.4,0.1-0.6,0.4-0.7,0.7c-0.1,0.4-0.5,0.6-0.9,0.5c-0.4-0.1-0.6-0.5-0.5-0.9c0.2-0.7,0.7-1.3,1.4-1.6c0.7-0.4,1.4-0.4,2.1-0.2
		c0.6,0.2,1.2,0.8,1.5,1.5c0.3,0.7,0.3,1.4,0,2.1C266.5,35.4,266.3,35.6,266,35.6"/>
	<path d="M253.9,33.9c-0.1,0-0.1-0.1-0.2,0c-0.4-0.1-0.6-0.5-0.5-0.9c0.1-0.4,0.1-0.9-0.2-1.3c-0.3-0.4-0.7-0.7-1.1-0.8
		s-0.9,0.1-1.3,0.4c-0.4,0.3-0.6,0.8-0.6,1.2s-0.3,0.7-0.7,0.7l0,0c-0.4,0-0.7-0.3-0.7-0.7c0-0.9,0.4-1.7,1.1-2.3
		c0.7-0.6,1.6-0.8,2.4-0.7c0.9,0.1,1.6,0.6,2.1,1.4s0.7,1.7,0.4,2.5C254.5,33.7,254.2,33.9,253.9,33.9"/>
</g>
</svg>
